<?xml version="1.0" encoding="UTF-8"?>
<svg version="1.1" xmlns="http://www.w3.org/2000/svg" width="1985" height="2047">
<path d="M0 0 C2.57230064 -0.00736457 5.14454801 -0.0192216 7.71682739 -0.03188324 C38.9909749 -0.16391223 70.20047733 1.35110694 101.19265747 5.74246979 C102.76758995 5.95826379 104.34254171 6.17391717 105.91751099 6.38944244 C186.60301562 17.58036116 265.28850814 42.74922294 390.50515747 121.36746979 C391.53511841 122.14219635 392.56507935 122.91692291 393.62625122 123.71512604 C401.24627501 129.46925632 408.51853857 135.56096211 415.72146606 141.82645416 C417.51961191 143.37995766 419.33190417 144.91513591 421.14968872 146.44559479 C427.3801463 151.70241222 433.3754998 157.0287537 439.02859497 162.91825104 C441.06698619 164.93413636 443.1355067 166.78996405 445.30984497 168.65262604 C449.57541337 172.35180572 453.4229729 176.35159863 457.25515747 180.49246979 C458.29168457 181.60452789 458.29168457 181.60452789 459.34915161 182.73905182 C460.74616887 184.23921108 462.14146404 185.74097606 463.53494263 187.24442291 C465.31403154 189.16151798 467.10102358 191.07074721 468.89187622 192.97684479 C474.2256434 198.67300349 479.35514792 204.4804984 484.23562622 210.57450104 C486.27080678 213.0790692 488.36685135 215.5176095 490.48806763 217.9492569 C500.70509412 229.73413645 509.11764205 242.65231802 516.50515747 256.36746979 C517.07621216 257.39227448 517.64726685 258.41707916 518.23562622 259.47293854 C536.33362151 293.47397774 543.18359167 333.43093583 546.50515747 371.36746979 C546.60087036 372.40218414 546.69658325 373.4368985 546.79519653 374.50296783 C547.86872912 387.86729426 547.74903546 401.28147823 547.75515747 414.67996979 C547.75559933 415.3419915 547.75604118 416.00401321 547.75649643 416.68609619 C547.76487271 440.68996748 546.91936893 464.47821085 544.50515747 488.36746979 C544.42265747 489.19800873 544.34015747 490.02854767 544.25515747 490.88425446 C534.27382083 590.78639722 509.37096618 688.77405408 394.39285278 996.45206451 C393.50347283 998.37110479 392.61884714 1000.29226758 391.73562622 1002.21414948 C382.93176272 1021.35842754 373.65994624 1040.26177802 364.25515747 1059.11746979 C363.71152557 1060.21000061 363.16789368 1061.30253143 362.60778809 1062.42816925 C355.61992078 1076.45630725 348.36350671 1090.29796215 340.79324341 1104.02005768 C339.01342409 1107.26360633 337.27556192 1110.52745737 335.54421997 1113.79715729 C328.04081549 1127.96717121 320.21507154 1141.89502994 312.06375122 1155.70536041 C308.45236231 1161.87368508 304.9778412 1168.12031386 301.50515747 1174.36746979 C332.72211421 1173.6498386 363.19591 1168.38342639 393.82817078 1162.76334381 C401.22941798 1161.40829698 408.63882393 1160.12612311 416.06765747 1158.92996979 C416.98619507 1158.77850494 417.90473267 1158.6270401 418.85110474 1158.47098541 C453.05064499 1153.04075082 488.62481407 1156.77239698 517.59597778 1176.9582901 C536.12870993 1190.63743715 551.8574096 1212.17158522 555.50515747 1235.36746979 C555.71323397 1238.49090822 555.78732935 1241.61306969 555.84890747 1244.74246979 C555.86699463 1245.65587128 555.88508179 1246.56927277 555.90371704 1247.51035309 C556.50207575 1284.33909758 556.50207575 1284.33909758 548.50515747 1300.36746979 C547.88052964 1301.77288241 547.26070465 1303.1804398 546.64578247 1304.59012604 C534.73925128 1330.93880976 513.05597783 1353.75929499 490.50515747 1371.36746979 C489.36513711 1372.2947043 488.22723987 1373.22455319 487.09109497 1374.15653229 C413.24575503 1434.51981739 322.40675173 1462.81884339 228.50515747 1470.36746979 C227.39011841 1470.46318268 226.27507935 1470.55889557 225.12625122 1470.65750885 C212.77334279 1471.58627428 200.41341527 1471.5188162 188.03152466 1471.49784088 C184.2492577 1471.4924614 180.46710842 1471.49782439 176.68484497 1471.50418854 C174.24474055 1471.50352798 171.80463619 1471.50224728 169.36453247 1471.50028229 C167.69532745 1471.50331863 167.69532745 1471.50331863 165.99240112 1471.50641632 C158.78435069 1471.48515424 151.67825583 1471.07418147 144.50515747 1470.36746979 C144.41427856 1471.72678619 144.41427856 1471.72678619 144.32156372 1473.11356354 C144.23777466 1474.3317276 144.1539856 1475.54989166 144.06765747 1476.80496979 C143.98644653 1477.99993073 143.9052356 1479.19489166 143.82156372 1480.42606354 C143.61106417 1483.04821229 143.34519996 1485.66651619 143.02371216 1488.2773819 C142.33556572 1494.42003831 142.13294929 1500.57674208 141.89187622 1506.75028229 C141.8088354 1508.74828948 141.72577611 1510.74629601 141.64197063 1512.74427128 C141.58314527 1514.14760052 141.52464393 1515.55094338 141.46645069 1516.95429897 C137.76659416 1606.09440332 130.16174783 1695.05231565 51.50515747 1904.36746979 C50.87528931 1905.29462799 50.87528931 1905.29462799 50.23269653 1906.24051666 C44.18342025 1915.09012146 37.55043182 1923.29544228 30.50515747 1931.36746979 C29.89027466 1932.08289948 29.27539185 1932.79832916 28.64187622 1933.53543854 C26.94775543 1935.49641368 25.23195115 1937.43519126 23.50515747 1939.36746979 C22.65050903 1940.32653229 21.7958606 1941.28559479 20.91531372 1942.27371979 C15.74070287 1948.03257539 10.45162238 1953.40005889 4.50515747 1958.36746979 C3.52418091 1959.23629791 2.54320435 1960.10512604 1.53250122 1961.00028229 C-61.48781562 2016.68337943 -158.26689305 2045.47405452 -241.49484253 2047.36746979 C-242.80839722 2047.40743073 -244.1219519 2047.44739166 -245.47531128 2047.48856354 C-305.34700634 2048.75813201 -362.13746823 2028.77553434 -405.49484253 1987.36746979 C-406.4203894 1986.49477448 -407.34593628 1985.62207916 -408.29953003 1984.72293854 C-415.46417044 1977.7917071 -421.55392985 1970.33793778 -427.49484253 1962.36746979 C-427.97034546 1961.74162994 -428.44584839 1961.1157901 -428.9357605 1960.47098541 C-485.21712745 1886.08104633 -500.76659821 1781.39229851 -514.49484253 1526.36746979 C-515.0352417 1526.58821167 -515.57564087 1526.80895355 -516.13241577 1527.03638458 C-526.31689051 1531.18496883 -536.45751009 1535.31206963 -546.99484253 1538.49246979 C-548.60697632 1538.98203156 -548.60697632 1538.98203156 -550.25167847 1539.48148346 C-577.58802652 1547.55418711 -606.14247173 1552.45074642 -634.67843628 1552.57059479 C-635.80371735 1552.57769974 -636.92899841 1552.58480469 -638.08837891 1552.59212494 C-685.33305259 1552.82262944 -685.33305259 1552.82262944 -706.49484253 1549.36746979 C-707.20370605 1549.2534079 -707.91256958 1549.13934601 -708.64291382 1549.0218277 C-736.28435229 1544.55610661 -763.44622369 1538.89173832 -789.49484253 1528.36746979 C-790.16064331 1528.1053067 -790.82644409 1527.84314362 -791.51242065 1527.57303619 C-808.30015778 1520.91712354 -824.56909484 1511.89553365 -838.49484253 1500.36746979 C-839.06815308 1499.8980899 -839.64146362 1499.42871002 -840.23214722 1498.94510651 C-847.19997873 1493.21955874 -853.91111454 1487.50456572 -859.49484253 1480.36746979 C-863.36826972 1482.55150438 -866.86611456 1485.08997654 -870.41940308 1487.74588776 C-880.00624191 1494.88042376 -889.86529965 1500.92385541 -900.49484253 1506.36746979 C-901.12422729 1506.69440826 -901.75361206 1507.02134674 -902.40206909 1507.35819244 C-942.77748228 1528.1093777 -990.70685309 1530.95816843 -1033.77023315 1517.29471588 C-1063.89336977 1507.04313229 -1090.58196616 1489.67378802 -1113.68624878 1467.98856354 C-1116.30921064 1465.54070901 -1118.98485254 1463.16994946 -1121.68234253 1460.80496979 C-1126.68024348 1456.31803635 -1131.07425079 1451.41398602 -1135.49484253 1446.36746979 C-1136.95284042 1444.78382756 -1138.41117724 1443.20049731 -1139.86984253 1441.61746979 C-1145.40769922 1435.45576443 -1150.4600056 1428.94072912 -1155.49484253 1422.36746979 C-1155.989198 1421.724711 -1156.48355347 1421.08195221 -1156.9928894 1420.41971588 C-1164.2317535 1410.98450402 -1171.04127216 1401.3542798 -1177.49484253 1391.36746979 C-1178.02335815 1390.55536041 -1178.55187378 1389.74325104 -1179.09640503 1388.90653229 C-1187.71043397 1375.65115442 -1195.82959529 1362.19206623 -1203.49484253 1348.36746979 C-1204.23371704 1347.04416656 -1204.23371704 1347.04416656 -1204.98751831 1345.69412994 C-1221.85928842 1315.40126193 -1236.79784798 1284.20843919 -1250.49484253 1252.36746979 C-1250.78361267 1251.69798309 -1251.07238281 1251.0284964 -1251.36990356 1250.33872223 C-1264.83160591 1219.11730993 -1277.04449588 1187.37809878 -1288.49484253 1155.36746979 C-1288.87838898 1154.29707458 -1288.87838898 1154.29707458 -1289.26968384 1153.20505524 C-1323.00174858 1059.00156097 -1350.20011463 962.61725283 -1421.49484253 621.61746979 C-1421.63727386 620.5880426 -1421.7797052 619.55861542 -1421.92645264 618.49799347 C-1426.3448606 586.27694648 -1427.73656165 554.35602261 -1427.74484253 521.86746979 C-1427.74528439 521.07187653 -1427.74572624 520.27628326 -1427.74618149 519.45658112 C-1427.7538697 492.99516597 -1427.22885805 466.71018435 -1424.49484253 440.36746979 C-1424.40762939 439.52234833 -1424.32041626 438.67722687 -1424.2305603 437.80649567 C-1415.47286568 354.02638558 -1392.80646683 271.67192165 -1309.49484253 157.36746979 C-1308.73171753 156.51153229 -1307.96859253 155.65559479 -1307.18234253 154.77371979 C-1300.99422795 147.83299667 -1294.68202471 141.28877463 -1287.62765503 135.22684479 C-1286.18494701 133.96909933 -1284.76330377 132.68684399 -1283.36203003 131.38309479 C-1275.53092178 124.10945527 -1267.07041631 117.72643549 -1258.49484253 111.36746979 C-1257.82598022 110.86844147 -1257.15711792 110.36941315 -1256.46798706 109.85526276 C-1175.23733544 49.61204952 -1071.96368928 27.72050259 -905.49484253 29.36746979 C-904.73608826 29.42827728 -903.97733398 29.48908478 -903.19558716 29.55173492 C-844.47395845 34.32014229 -786.56699817 44.90556003 -729.49484253 59.36746979 C-728.32199707 59.66430664 -728.32199707 59.66430664 -727.12545776 59.9671402 C-705.19944109 65.53617337 -683.59106303 71.98340273 -662.05221558 78.89774323 C-661.11931198 79.19455994 -660.18640839 79.49137665 -659.22523499 79.79718781 C-657.47408143 80.35471456 -655.72476966 80.9180726 -653.97770691 81.48828888 C-646.61821383 83.82954147 -646.61821383 83.82954147 -639.35031128 81.82059479 C-638.12299269 81.09403852 -636.90068112 80.35898581 -635.68234253 79.61746979 C-556.63042194 33.59428195 -463.79419617 18.68625849 -282.18615723 28.54160309 C-280.43901967 28.75817748 -278.69160227 28.97250664 -276.94390869 29.18454742 C-261.10897333 31.10946775 -261.10897333 31.10946775 -254.60421753 32.70731354 C-239.00040666 36.42742739 -225.01221451 30.96431023 -210.09049988 26.5344162 C-200.77916829 23.80441742 -191.35116131 21.66571641 -181.86984253 19.61746979 C-181.00694611 19.43086792 -180.14404968 19.24426605 -179.25500488 19.05200958 C-146.84641129 12.08863914 -114.22776272 7.31575781 -81.28378296 3.6760025 C-79.51924401 3.48079647 -77.75496397 3.28322297 -75.99105835 3.08237457 C-50.72385719 0.21083333 -25.39996694 0.06266511 0 0 Z " fill="#FEFEFE" transform="translate(1429.4948425292969,-0.36746978759765625)"/>
<path d="M0 0 C1.09393066 0.11214844 2.18786133 0.22429687 3.31494141 0.33984375 C36.70992408 3.80611778 70.1254267 11.60437145 102 22 C103.10827148 22.36077637 104.21654297 22.72155273 105.35839844 23.09326172 C144.42087137 35.92745301 181.93629402 52.48612724 217 74 C218.45303514 74.87905481 219.90615363 75.75797185 221.359375 76.63671875 C237.53128223 86.50419022 252.99532597 97.44706857 268 109 C268.60150879 109.46116211 269.20301758 109.92232422 269.82275391 110.39746094 C282.52069996 120.15552257 294.58457633 130.57046507 306.3190918 141.46264648 C307.60002969 142.63418837 308.8927512 143.79286017 310.19067383 144.94555664 C316.24315815 150.32547622 322.05623091 155.90017428 327.76928711 161.63891602 C329.19337492 163.06839717 330.62278044 164.49240511 332.05273438 165.91601562 C336.7039664 170.5737302 341.2336077 175.27456061 345.51782227 180.27270508 C347.57817523 182.67379176 349.72826457 184.98867697 351.875 187.3125 C355.91402153 191.74631311 359.77506878 196.28054584 363.5390625 200.94921875 C365.33280236 203.17288674 367.13872383 205.38198478 368.9609375 207.58203125 C377.37216946 217.77166751 385.27570668 228.28226315 393 239 C393.53012695 239.73395996 394.06025391 240.46791992 394.60644531 241.22412109 C411.76446608 265.04633865 427.10224367 290.14492879 441 316 C441.48114258 316.88461914 441.96228516 317.76923828 442.45800781 318.68066406 C454.11877681 340.18732496 464.10120688 362.47998413 472.875 385.3125 C473.20282471 386.16553711 473.53064941 387.01857422 473.8684082 387.89746094 C476 393.60791138 476 393.60791138 476 397 C475.45251099 396.94137787 474.90502197 396.88275574 474.34094238 396.82235718 C457.71342219 395.09191162 441.21060388 394.59804697 424.5 394.625 C423.22618469 394.62554382 421.95236938 394.62608765 420.63995361 394.62664795 C401.47022734 394.66423152 382.83354281 395.16142776 364 399 C362.9392627 399.21430664 361.87852539 399.42861328 360.78564453 399.64941406 C320.634665 408.09901521 281.80774067 426.92429234 258.66796875 462.05224609 C240.98151129 489.77714991 234.55360118 520.22318222 234.6875 552.8125 C234.68973572 554.16103058 234.68973572 554.16103058 234.6920166 555.5368042 C234.73661193 570.55178591 235.6255445 585.15337815 238 600 C238.14985352 600.9801709 238.29970703 601.9603418 238.45410156 602.97021484 C241.9954429 625.90622703 247.82256601 647.94797284 255 670 C255.21011719 670.64708923 255.42023437 671.29417847 255.63671875 671.96087646 C270.46437278 717.5374332 289.85428634 761.04356956 311 804 C311.32160095 804.65415894 311.6432019 805.30831787 311.97454834 805.9822998 C320.14171124 822.58791685 328.4957287 839.04098557 337.47412109 855.22607422 C339.73466078 859.33555453 341.94300313 863.47256065 344.15576172 867.60791016 C349.16445105 876.96780398 354.24563489 886.27563455 359.5 895.5 C370.38222711 914.61805658 381.34827561 933.90768346 390.24609375 954.05078125 C396.35944308 967.87906818 403.28660385 980.99594214 411 994 C411.4434375 994.75007324 411.886875 995.50014648 412.34375 996.27294922 C424.23205516 1016.22765519 438.6978633 1034.40255891 453.41015625 1052.32080078 C454.95193966 1054.20471605 456.48025459 1056.09826584 458 1058 C458.5676709 1058.70930664 459.1353418 1059.41861328 459.72021484 1060.14941406 C460.54513428 1061.20854004 460.54513428 1061.20854004 461.38671875 1062.2890625 C461.88776123 1062.9279541 462.38880371 1063.5668457 462.9050293 1064.22509766 C464 1066 464 1066 464 1069 C463.11441406 1069.268125 462.22882812 1069.53625 461.31640625 1069.8125 C444.56340455 1075.11209679 427.78750507 1082.08807749 415.234375 1094.80078125 C413 1097 413 1097 411 1097 C410.72414063 1097.59941406 410.44828125 1098.19882813 410.1640625 1098.81640625 C409 1101 409 1101 406.375 1103.9375 C386.84476759 1126.36638004 380.1019632 1158.15397557 379.84375 1187.07421875 C379.83257141 1188.3142717 379.83257141 1188.3142717 379.82116699 1189.57937622 C379.81379517 1190.43296722 379.80642334 1191.28655823 379.79882812 1192.16601562 C379.56293616 1219.28365983 376.63848556 1245.91692787 373.35176086 1272.79925537 C372.03639452 1283.57187063 370.86215674 1294.3555992 369.73083496 1305.14883423 C367.81845041 1323.32941975 365.59170963 1341.45962566 363.23242188 1359.5871582 C361.5216206 1372.75470986 359.93926943 1385.93207477 358.4375 1399.125 C356.75843941 1413.84814576 354.90271371 1428.53562311 352.87475586 1443.21459961 C351.43143102 1453.68052001 350.09679578 1464.15631854 348.81195068 1474.64282227 C346.67435802 1492.07982351 344.24532854 1509.45327969 341.62084961 1526.82348633 C340.91879846 1531.51158492 340.25521426 1536.20501817 339.58984375 1540.8984375 C327.54238906 1625.65073918 327.54238906 1625.65073918 316 1661 C315.68836914 1661.96873047 315.37673828 1662.93746094 315.05566406 1663.93554688 C306.61424719 1689.82255861 293.88238445 1712.41723037 275 1732 C274.29617188 1732.76699219 273.59234375 1733.53398438 272.8671875 1734.32421875 C236.45271226 1772.88479424 175.63512977 1788.16991479 125 1796 C123.79706299 1796.19480957 123.79706299 1796.19480957 122.56982422 1796.39355469 C111.1703618 1798.17573471 99.69962333 1798.1987943 88.1875 1798.25 C87.44137451 1798.2554483 86.69524902 1798.26089661 85.92651367 1798.26651001 C76.10756666 1798.3198856 66.69935183 1797.71750377 57 1796 C56.2160083 1795.86464844 55.4320166 1795.72929688 54.62426758 1795.58984375 C31.22528302 1791.24851392 10.3724365 1780.05883072 -7 1764 C-7.75941895 1763.30632324 -7.75941895 1763.30632324 -8.53417969 1762.59863281 C-31.08757386 1741.78345784 -45.34241556 1713.53530693 -56.3125 1685.25 C-56.62606445 1684.44755859 -56.93962891 1683.64511719 -57.26269531 1682.81835938 C-62.06298844 1670.05522706 -64.7183371 1657.05410926 -66.75537109 1643.62182617 C-67.12327948 1641.19883114 -67.50397557 1638.77811322 -67.88671875 1636.35742188 C-70.58510755 1619.08729585 -72.26205928 1601.80506889 -73.5 1584.375 C-73.73778976 1581.07018088 -73.97785851 1577.76553185 -74.21875 1574.4609375 C-74.30968933 1573.20209999 -74.30968933 1573.20209999 -74.40246582 1571.91783142 C-74.80487321 1566.4214096 -75.26116305 1560.93148326 -75.74145508 1555.44136047 C-77.91800999 1530.38361795 -78.87952366 1505.23953903 -79.9129715 1480.11302185 C-79.99721804 1478.06754497 -80.08253315 1476.02211463 -80.16790771 1473.97668457 C-82.08495776 1427.39287501 -82.1850183 1380.79795863 -82.18724871 1334.18255949 C-82.18749773 1331.89580605 -82.18821736 1329.60905324 -82.1890831 1327.32229996 C-82.20121478 1292.5519293 -82.04080175 1257.79897453 -81.18435383 1223.03691292 C-80.95008386 1213.34455056 -80.8029247 1203.65084654 -80.66458035 1193.95670033 C-80.63768171 1192.11723842 -80.60876286 1190.27780517 -80.57804203 1188.43840313 C-80.56342647 1187.53854592 -80.5488109 1186.63868872 -80.53375244 1185.71156311 C-80.52021351 1184.91365891 -80.50667458 1184.11575472 -80.49272537 1183.29367161 C-80.28054856 1152.56833406 -94.84832197 1122.69931936 -115.82666016 1100.82128906 C-133.26476255 1083.14402974 -159.17089872 1070.2041839 -184.31274414 1069.82177734 C-191.2670475 1069.7930998 -198.09467246 1070.12313301 -205 1071 C-202.61480553 1059.3185545 -199.65858033 1048.11320637 -195.6875 1036.875 C-195.16504383 1035.37725237 -194.64275047 1033.87944794 -194.12060547 1032.3815918 C-192.43809718 1027.57892084 -190.72422747 1022.78783246 -189 1018 C-188.70486511 1017.17989441 -188.40973022 1016.35978882 -188.10565186 1015.51483154 C-179.85194941 992.63151821 -170.90770267 970.18249461 -160.90618896 948.00982666 C-151.24112323 926.57378238 -141.92234325 905.15770907 -134 883 C-133.35272949 881.20780029 -133.35272949 881.20780029 -132.69238281 879.37939453 C-118.49446447 839.73427503 -111.38730549 798.90321282 -108 757 C-107.91707703 756.06387878 -107.83415405 755.12775757 -107.74871826 754.16326904 C-107.06906465 746.10878689 -106.82603496 738.11244381 -106.796875 730.03125 C-106.78995132 728.72849625 -106.78302765 727.42574249 -106.77589417 726.08351135 C-106.75670099 721.88900413 -106.75197402 717.69454596 -106.75 713.5 C-106.74926357 712.78591351 -106.74852715 712.07182701 -106.7477684 711.33610153 C-106.72851259 688.42582165 -107.39898718 665.77800979 -110 643 C-110.23098957 640.81906552 -110.46148762 638.63807889 -110.69140625 636.45703125 C-111.36751394 630.29139839 -112.16994221 624.14655104 -113 618 C-113.16725586 616.73140137 -113.33451172 615.46280273 -113.50683594 614.15576172 C-125.53339334 513.30932997 -125.53339334 513.30932997 -183.35595703 433.72167969 C-196.29680187 424.09361106 -209.88929522 417.93691651 -225.08422852 412.68432617 C-226.56736692 412.15453938 -228.02649801 411.55729233 -229.47265625 410.93359375 C-233.32549662 409.51036524 -237.29470749 408.75981862 -241.3125 407.9375 C-242.12912109 407.76412109 -242.94574219 407.59074219 -243.78710938 407.41210938 C-252.43496386 405.61363127 -260.76513175 404.8322301 -269.5859375 404.76171875 C-270.59213135 404.7519249 -271.5983252 404.74213104 -272.63500977 404.73204041 C-293.4649328 404.57097293 -313.56959711 404.53181234 -334 409 C-336.17532775 409.43068235 -338.35112881 409.85897949 -340.52734375 410.28515625 C-381.82085136 418.65126863 -420.52881309 434.75071603 -457.85302734 453.95947266 C-460 455 -460 455 -463 456 C-458.6047848 398.05255752 -448.40304902 340.47781578 -431 285 C-430.61908203 283.77635742 -430.23816406 282.55271484 -429.84570312 281.29199219 C-420.35505809 251.07510488 -408.23881776 222.26216237 -394 194 C-393.3179248 192.63415771 -393.3179248 192.63415771 -392.62207031 191.24072266 C-377.2005613 160.4866065 -357.28537175 131.73832927 -334.10546875 106.32421875 C-332.26022445 104.28726075 -330.4691833 102.21729153 -328.6875 100.125 C-321.44867484 91.82560278 -313.4750948 84.02744179 -305 77 C-304.46455566 76.55076172 -303.92911133 76.10152344 -303.37744141 75.63867188 C-255.05018133 35.17864019 -199.68341691 12.13504842 -138 1 C-136.91058105 0.79810059 -135.82116211 0.59620117 -134.69873047 0.38818359 C-91.35615058 -7.24080706 -43.55919198 -4.80621585 0 0 Z " fill="#336791" transform="translate(1100,137)"/>
<path d="M0 0 C1.0135556 0.00221558 2.02711121 0.00443115 3.07138062 0.00671387 C9.96446462 0.02431675 16.85716064 0.0647527 23.75 0.125 C24.86486786 0.13436584 24.86486786 0.13436584 26.0022583 0.1439209 C86.66447173 0.71457715 147.99490047 11.60389229 206.75 26.125 C207.9767041 26.42647949 209.2034082 26.72795898 210.46728516 27.03857422 C225.24540499 30.69767103 239.84318232 34.82387957 254.36914062 39.37890625 C257.53360667 40.37056009 260.7041333 41.3415169 263.875 42.3125 C265.83338817 42.91648888 267.79172109 43.52065697 269.75 44.125 C272.18744387 44.8751824 274.62494352 45.62518359 277.0625 46.375 C278.95833333 46.95833333 280.85416667 47.54166667 282.75 48.125 C281.2658627 51.61154476 279.28785948 53.76691072 276.5625 56.375 C272.39132864 60.46009957 268.53744901 64.68658319 264.75 69.125 C263.83402605 70.17768648 262.91729612 71.22971543 262 72.28125 C255.27971649 80.01120982 248.85752598 87.90069866 242.75 96.125 C242.25387207 96.78983398 241.75774414 97.45466797 241.24658203 98.13964844 C223.27172188 122.31636092 208.3125348 148.25764039 194.75 175.125 C194.00532471 176.59815674 194.00532471 176.59815674 193.24560547 178.10107422 C176.456992 211.56349788 163.10671427 247.17231286 153.50439453 283.34765625 C152.81071021 285.90149213 152.07426265 288.43571002 151.30859375 290.96875 C136.49771061 340.09580764 128.48175037 391.53971251 124.05859375 442.57666016 C123.85947444 444.86621715 123.65176993 447.15505141 123.43359375 449.44287109 C119.63390277 489.92280682 121.26638158 530.97025241 123.14433289 571.52469635 C126.38260124 641.63659638 125.01981972 710.55150623 116.38781738 780.30267334 C112.55284464 811.40001857 111.22995618 844.16497524 116.75 875.125 C116.93272461 876.1876709 117.11544922 877.2503418 117.30371094 878.34521484 C126.73556805 931.53686224 150.69058787 984.86081356 188.08203125 1024.28125 C190.13726181 1026.47189107 192.09678522 1028.68767021 194.046875 1030.96875 C197.83018157 1035.31721273 201.9499447 1039.22474325 206.1875 1043.125 C206.91904297 1043.80433594 207.65058594 1044.48367188 208.40429688 1045.18359375 C210.18291523 1046.83433758 211.96480532 1048.48137533 213.75 1050.125 C211.99650566 1053.85043582 209.82377497 1056.41739748 207 1059.4375 C206.52336914 1059.95022461 206.04673828 1060.46294922 205.55566406 1060.99121094 C203.95855476 1062.70700357 202.35468422 1064.4162912 200.75 1066.125 C198.3321762 1068.70725179 195.91596259 1071.29100691 193.5 1073.875 C192.59181519 1074.84518066 192.59181519 1074.84518066 191.6652832 1075.83496094 C188.2531302 1079.48751242 184.91161282 1083.18261562 181.65234375 1086.97265625 C178.90876939 1090.07678248 176.07620845 1093.09618461 173.25 1096.125 C169.2581425 1100.40431616 165.31209415 1104.7056502 161.48828125 1109.13671875 C159.27743511 1111.66552928 157.01403557 1114.14372564 154.75 1116.625 C149.74198449 1122.1217858 144.82789011 1127.68500294 140.00390625 1133.34375 C138.9819362 1134.54180775 137.95979569 1135.7397201 136.9375 1136.9375 C136.16176636 1137.84653076 136.16176636 1137.84653076 135.37036133 1138.77392578 C132.1652347 1142.51532262 128.89806271 1146.18598478 125.5625 1149.8125 C121.53606164 1154.19855646 117.76890278 1158.74241628 114.03125 1163.375 C111.68281032 1166.20599578 109.24090098 1168.91883598 106.75 1171.625 C102.63621091 1176.0948512 98.77912703 1180.71544893 94.96484375 1185.44140625 C92.79367173 1188.07208557 90.54758643 1190.60442424 88.25 1193.125 C84.40808061 1197.34513944 80.78884779 1201.70527184 77.19921875 1206.140625 C73.92758905 1210.1271084 70.56158528 1214.02849403 67.18994141 1217.93041992 C64.15076052 1221.45747186 61.20659193 1225.03935109 58.3125 1228.6875 C45.61281172 1244.24747844 30.93918302 1256.56306352 12.75 1265.125 C11.78835938 1265.58132813 10.82671875 1266.03765625 9.8359375 1266.5078125 C-2.90529947 1271.6401981 -18.11301752 1270.61288079 -30.73828125 1265.7265625 C-55.79696917 1254.29823987 -77.01353919 1233.94190176 -93.04492188 1211.78320312 C-94.30394495 1210.05077104 -95.59393238 1208.34501137 -96.890625 1206.640625 C-129.32929024 1163.6820983 -152.96962828 1114.3330713 -174.25 1065.125 C-174.68602539 1064.11856445 -174.68602539 1064.11856445 -175.13085938 1063.09179688 C-195.3367868 1016.40913696 -212.45493538 968.4575519 -228.25 920.125 C-228.52175049 919.29429993 -228.79350098 918.46359985 -229.07348633 917.60772705 C-232.92958316 905.81893722 -236.76078503 894.02222599 -240.57299805 882.21917725 C-241.19253499 880.30275711 -241.81394531 878.38694286 -242.43554688 876.47119141 C-245.58529726 866.76239378 -248.61758593 857.07820943 -251.16796875 847.19140625 C-252.52736818 841.99339109 -254.05207587 836.84322334 -255.5625 831.6875 C-255.86212646 830.66285645 -256.16175293 829.63821289 -256.47045898 828.58251953 C-257.98430739 823.41478975 -259.50918461 818.25052785 -261.046875 813.08984375 C-264.59720344 801.12435666 -267.84158959 789.12346201 -270.79296875 776.99609375 C-272.34032293 770.68049561 -274.02369618 764.40292561 -275.71261597 758.12393188 C-285.45193985 721.89612487 -285.45193985 721.89612487 -289.55615234 704.11230469 C-290.3874395 700.53326542 -291.23418108 696.95795412 -292.08203125 693.3828125 C-298.53734234 666.14355508 -304.78332288 638.878758 -310.32226562 611.43676758 C-310.6339266 609.89530703 -310.94577599 608.35388457 -311.2578125 606.8125 C-311.49247978 605.65241173 -311.49247978 605.65241173 -311.73188782 604.46888733 C-312.79474566 599.25354777 -313.91990202 594.05422162 -315.07017517 588.85751343 C-317.95879118 575.79025812 -320.44066104 562.66975739 -322.8125 549.5 C-323.37642029 546.38784204 -323.9414928 543.27589572 -324.5070343 540.16403198 C-324.87760635 538.12485967 -325.24755863 536.08557463 -325.61686707 534.0461731 C-326.84597009 527.277639 -328.12673503 520.52028548 -329.4296875 513.765625 C-330.72509206 507.02889923 -331.9265693 500.30476377 -332.8125 493.5 C-333.05207651 491.74200863 -333.29299013 489.98419902 -333.53515625 488.2265625 C-333.65262207 487.37223633 -333.77008789 486.51791016 -333.89111328 485.63769531 C-334.34282268 482.47511495 -334.85391643 479.3242227 -335.37304688 476.17211914 C-348.29388439 397.43367345 -347.30003267 309.59401559 -326.25 232.125 C-326.01732422 231.26277832 -325.78464844 230.40055664 -325.54492188 229.51220703 C-313.89052086 186.85972811 -296.48596883 144.61100274 -268.25 110.125 C-267.81864746 109.59745117 -267.38729492 109.06990234 -266.94287109 108.52636719 C-257.17822264 96.64051909 -247.01972271 85.07008693 -235.25 75.125 C-234.40791992 74.40642822 -234.40791992 74.40642822 -233.54882812 73.67333984 C-199.67720471 44.90038144 -159.14817614 25.26632021 -116.25 14.125 C-115.25419922 13.86444824 -114.25839844 13.60389648 -113.23242188 13.33544922 C-99.9984474 9.91108591 -86.86842341 7.17279037 -73.30175781 5.5078125 C-69.74699008 5.06190244 -66.19812823 4.57839736 -62.6484375 4.09375 C-60.60514607 3.81834144 -58.56169143 3.54419155 -56.51812744 3.27081299 C-54.57797636 3.01046367 -52.63834116 2.74627874 -50.69873047 2.48193359 C-33.79254443 0.27141285 -17.02516697 -0.04968962 0 0 Z " fill="#336791" transform="translate(457.25,137.875)"/>
<path d="M0 0 C2.57230064 -0.00736457 5.14454801 -0.0192216 7.71682739 -0.03188324 C38.9909749 -0.16391223 70.20047733 1.35110694 101.19265747 5.74246979 C102.76758995 5.95826379 104.34254171 6.17391717 105.91751099 6.38944244 C186.60301562 17.58036116 265.28850814 42.74922294 390.50515747 121.36746979 C391.53511841 122.14219635 392.56507935 122.91692291 393.62625122 123.71512604 C401.24627501 129.46925632 408.51853857 135.56096211 415.72146606 141.82645416 C417.51961191 143.37995766 419.33190417 144.91513591 421.14968872 146.44559479 C427.3801463 151.70241222 433.3754998 157.0287537 439.02859497 162.91825104 C441.06698619 164.93413636 443.1355067 166.78996405 445.30984497 168.65262604 C449.57541337 172.35180572 453.4229729 176.35159863 457.25515747 180.49246979 C458.29168457 181.60452789 458.29168457 181.60452789 459.34915161 182.73905182 C460.74616887 184.23921108 462.14146404 185.74097606 463.53494263 187.24442291 C465.31403154 189.16151798 467.10102358 191.07074721 468.89187622 192.97684479 C474.2256434 198.67300349 479.35514792 204.4804984 484.23562622 210.57450104 C486.27080678 213.0790692 488.36685135 215.5176095 490.48806763 217.9492569 C500.70509412 229.73413645 509.11764205 242.65231802 516.50515747 256.36746979 C517.07621216 257.39227448 517.64726685 258.41707916 518.23562622 259.47293854 C536.33362151 293.47397774 543.18359167 333.43093583 546.50515747 371.36746979 C546.60087036 372.40218414 546.69658325 373.4368985 546.79519653 374.50296783 C547.86872912 387.86729426 547.74903546 401.28147823 547.75515747 414.67996979 C547.75559933 415.3419915 547.75604118 416.00401321 547.75649643 416.68609619 C547.76487271 440.68996748 546.91936893 464.47821085 544.50515747 488.36746979 C544.42265747 489.19800873 544.34015747 490.02854767 544.25515747 490.88425446 C534.27382083 590.78639722 509.37096618 688.77405408 394.39285278 996.45206451 C393.50347283 998.37110479 392.61884714 1000.29226758 391.73562622 1002.21414948 C382.93176272 1021.35842754 373.65994624 1040.26177802 364.25515747 1059.11746979 C363.71152557 1060.21000061 363.16789368 1061.30253143 362.60778809 1062.42816925 C355.61992078 1076.45630725 348.36350671 1090.29796215 340.79324341 1104.02005768 C339.01342409 1107.26360633 337.27556192 1110.52745737 335.54421997 1113.79715729 C328.04081549 1127.96717121 320.21507154 1141.89502994 312.06375122 1155.70536041 C308.45236231 1161.87368508 304.9778412 1168.12031386 301.50515747 1174.36746979 C332.72211421 1173.6498386 363.19591 1168.38342639 393.82817078 1162.76334381 C401.22941798 1161.40829698 408.63882393 1160.12612311 416.06765747 1158.92996979 C416.98619507 1158.77850494 417.90473267 1158.6270401 418.85110474 1158.47098541 C453.05064499 1153.04075082 488.62481407 1156.77239698 517.59597778 1176.9582901 C536.12870993 1190.63743715 551.8574096 1212.17158522 555.50515747 1235.36746979 C555.71323397 1238.49090822 555.78732935 1241.61306969 555.84890747 1244.74246979 C555.86699463 1245.65587128 555.88508179 1246.56927277 555.90371704 1247.51035309 C556.50207575 1284.33909758 556.50207575 1284.33909758 548.50515747 1300.36746979 C547.88052964 1301.77288241 547.26070465 1303.1804398 546.64578247 1304.59012604 C534.73925128 1330.93880976 513.05597783 1353.75929499 490.50515747 1371.36746979 C489.36513711 1372.2947043 488.22723987 1373.22455319 487.09109497 1374.15653229 C413.24575503 1434.51981739 322.40675173 1462.81884339 228.50515747 1470.36746979 C227.39011841 1470.46318268 226.27507935 1470.55889557 225.12625122 1470.65750885 C212.77334279 1471.58627428 200.41341527 1471.5188162 188.03152466 1471.49784088 C184.2492577 1471.4924614 180.46710842 1471.49782439 176.68484497 1471.50418854 C174.24474055 1471.50352798 171.80463619 1471.50224728 169.36453247 1471.50028229 C167.69532745 1471.50331863 167.69532745 1471.50331863 165.99240112 1471.50641632 C158.78435069 1471.48515424 151.67825583 1471.07418147 144.50515747 1470.36746979 C144.41427856 1471.72678619 144.41427856 1471.72678619 144.32156372 1473.11356354 C144.23777466 1474.3317276 144.1539856 1475.54989166 144.06765747 1476.80496979 C143.98644653 1477.99993073 143.9052356 1479.19489166 143.82156372 1480.42606354 C143.61106417 1483.04821229 143.34519996 1485.66651619 143.02371216 1488.2773819 C142.33556572 1494.42003831 142.13294929 1500.57674208 141.89187622 1506.75028229 C141.8088354 1508.74828948 141.72577611 1510.74629601 141.64197063 1512.74427128 C141.58314527 1514.14760052 141.52464393 1515.55094338 141.46645069 1516.95429897 C137.76659416 1606.09440332 130.16174783 1695.05231565 51.50515747 1904.36746979 C50.87528931 1905.29462799 50.87528931 1905.29462799 50.23269653 1906.24051666 C44.18342025 1915.09012146 37.55043182 1923.29544228 30.50515747 1931.36746979 C29.89027466 1932.08289948 29.27539185 1932.79832916 28.64187622 1933.53543854 C26.94775543 1935.49641368 25.23195115 1937.43519126 23.50515747 1939.36746979 C22.65050903 1940.32653229 21.7958606 1941.28559479 20.91531372 1942.27371979 C15.74070287 1948.03257539 10.45162238 1953.40005889 4.50515747 1958.36746979 C3.52418091 1959.23629791 2.54320435 1960.10512604 1.53250122 1961.00028229 C-61.48781562 2016.68337943 -158.26689305 2045.47405452 -241.49484253 2047.36746979 C-242.80839722 2047.40743073 -244.1219519 2047.44739166 -245.47531128 2047.48856354 C-305.34700634 2048.75813201 -362.13746823 2028.77553434 -405.49484253 1987.36746979 C-406.4203894 1986.49477448 -407.34593628 1985.62207916 -408.29953003 1984.72293854 C-415.46417044 1977.7917071 -421.55392985 1970.33793778 -427.49484253 1962.36746979 C-427.97034546 1961.74162994 -428.44584839 1961.1157901 -428.9357605 1960.47098541 C-485.21712745 1886.08104633 -500.76659821 1781.39229851 -514.49484253 1526.36746979 C-515.0352417 1526.58821167 -515.57564087 1526.80895355 -516.13241577 1527.03638458 C-526.31689051 1531.18496883 -536.45751009 1535.31206963 -546.99484253 1538.49246979 C-548.60697632 1538.98203156 -548.60697632 1538.98203156 -550.25167847 1539.48148346 C-577.58802652 1547.55418711 -606.14247173 1552.45074642 -634.67843628 1552.57059479 C-635.80371735 1552.57769974 -636.92899841 1552.58480469 -638.08837891 1552.59212494 C-685.33305259 1552.82262944 -685.33305259 1552.82262944 -706.49484253 1549.36746979 C-707.20370605 1549.2534079 -707.91256958 1549.13934601 -708.64291382 1549.0218277 C-736.28435229 1544.55610661 -763.44622369 1538.89173832 -789.49484253 1528.36746979 C-790.16064331 1528.1053067 -790.82644409 1527.84314362 -791.51242065 1527.57303619 C-808.30015778 1520.91712354 -824.56909484 1511.89553365 -838.49484253 1500.36746979 C-839.06815308 1499.8980899 -839.64146362 1499.42871002 -840.23214722 1498.94510651 C-847.19997873 1493.21955874 -853.91111454 1487.50456572 -859.49484253 1480.36746979 C-863.36826972 1482.55150438 -866.86611456 1485.08997654 -870.41940308 1487.74588776 C-880.00624191 1494.88042376 -889.86529965 1500.92385541 -900.49484253 1506.36746979 C-901.12422729 1506.69440826 -901.75361206 1507.02134674 -902.40206909 1507.35819244 C-942.77748228 1528.1093777 -990.70685309 1530.95816843 -1033.77023315 1517.29471588 C-1063.89336977 1507.04313229 -1090.58196616 1489.67378802 -1113.68624878 1467.98856354 C-1116.30921064 1465.54070901 -1118.98485254 1463.16994946 -1121.68234253 1460.80496979 C-1126.68024348 1456.31803635 -1131.07425079 1451.41398602 -1135.49484253 1446.36746979 C-1136.95284042 1444.78382756 -1138.41117724 1443.20049731 -1139.86984253 1441.61746979 C-1145.40769922 1435.45576443 -1150.4600056 1428.94072912 -1155.49484253 1422.36746979 C-1155.989198 1421.724711 -1156.48355347 1421.08195221 -1156.9928894 1420.41971588 C-1164.2317535 1410.98450402 -1171.04127216 1401.3542798 -1177.49484253 1391.36746979 C-1178.02335815 1390.55536041 -1178.55187378 1389.74325104 -1179.09640503 1388.90653229 C-1187.71043397 1375.65115442 -1195.82959529 1362.19206623 -1203.49484253 1348.36746979 C-1204.23371704 1347.04416656 -1204.23371704 1347.04416656 -1204.98751831 1345.69412994 C-1221.85928842 1315.40126193 -1236.79784798 1284.20843919 -1250.49484253 1252.36746979 C-1250.78361267 1251.69798309 -1251.07238281 1251.0284964 -1251.36990356 1250.33872223 C-1264.83160591 1219.11730993 -1277.04449588 1187.37809878 -1288.49484253 1155.36746979 C-1288.87838898 1154.29707458 -1288.87838898 1154.29707458 -1289.26968384 1153.20505524 C-1323.00174858 1059.00156097 -1350.20011463 962.61725283 -1421.49484253 621.61746979 C-1421.63727386 620.5880426 -1421.7797052 619.55861542 -1421.92645264 618.49799347 C-1426.3448606 586.27694648 -1427.73656165 554.35602261 -1427.74484253 521.86746979 C-1427.74528439 521.07187653 -1427.74572624 520.27628326 -1427.74618149 519.45658112 C-1427.7538697 492.99516597 -1427.22885805 466.71018435 -1424.49484253 440.36746979 C-1424.40762939 439.52234833 -1424.32041626 438.67722687 -1424.2305603 437.80649567 C-1415.47286568 354.02638558 -1392.80646683 271.67192165 -1309.49484253 157.36746979 C-1308.73171753 156.51153229 -1307.96859253 155.65559479 -1307.18234253 154.77371979 C-1300.99422795 147.83299667 -1294.68202471 141.28877463 -1287.62765503 135.22684479 C-1286.18494701 133.96909933 -1284.76330377 132.68684399 -1283.36203003 131.38309479 C-1275.53092178 124.10945527 -1267.07041631 117.72643549 -1258.49484253 111.36746979 C-1257.82598022 110.86844147 -1257.15711792 110.36941315 -1256.46798706 109.85526276 C-1175.23733544 49.61204952 -1071.96368928 27.72050259 -905.49484253 29.36746979 C-904.73608826 29.42827728 -903.97733398 29.48908478 -903.19558716 29.55173492 C-844.47395845 34.32014229 -786.56699817 44.90556003 -729.49484253 59.36746979 C-728.32199707 59.66430664 -728.32199707 59.66430664 -727.12545776 59.9671402 C-705.19944109 65.53617337 -683.59106303 71.98340273 -662.05221558 78.89774323 C-661.11931198 79.19455994 -660.18640839 79.49137665 -659.22523499 79.79718781 C-657.47408143 80.35471456 -655.72476966 80.9180726 -653.97770691 81.48828888 C-646.61821383 83.82954147 -646.61821383 83.82954147 -639.35031128 81.82059479 C-638.12299269 81.09403852 -636.90068112 80.35898581 -635.68234253 79.61746979 C-556.63042194 33.59428195 -463.79419617 18.68625849 -282.18615723 28.54160309 C-280.43901967 28.75817748 -278.69160227 28.97250664 -276.94390869 29.18454742 C-261.10897333 31.10946775 -261.10897333 31.10946775 -254.60421753 32.70731354 C-239.00040666 36.42742739 -225.01221451 30.96431023 -210.09049988 26.5344162 C-200.77916829 23.80441742 -191.35116131 21.66571641 -181.86984253 19.61746979 C-181.00694611 19.43086792 -180.14404968 19.24426605 -179.25500488 19.05200958 C-146.84641129 12.08863914 -114.22776272 7.31575781 -81.28378296 3.6760025 C-79.51924401 3.48079647 -77.75496397 3.28322297 -75.99105835 3.08237457 C-50.72385719 0.21083333 -25.39996694 0.06266511 0 0 Z M-91.36984253 59.74246979 C-93.12052972 59.96418142 -94.87126314 60.18552822 -96.62203979 60.40653229 C-110.28499461 62.1470965 -123.91818048 64.04075543 -137.49484253 66.36746979 C-138.43924194 66.52618561 -139.38364136 66.68490143 -140.35665894 66.84842682 C-173.78143601 72.56201543 -209.6881097 79.44615606 -241.13424683 92.45975494 C-248.38948848 95.24959758 -256.51307383 92.20511998 -263.74484253 90.55496979 C-273.58096905 88.37256725 -283.37548557 86.44480292 -293.34640503 85.00809479 C-296.37969258 84.56566449 -299.36818475 84.00069653 -302.36984253 83.37918854 C-334.82215701 76.7773545 -369.31008689 76.0917115 -402.30734253 76.05496979 C-403.30539917 76.05147522 -404.30345581 76.04798065 -405.33175659 76.04438019 C-419.81745416 76.01607845 -434.08665752 76.90695127 -448.49484253 78.36746979 C-449.69987427 78.48243805 -450.90490601 78.59740631 -452.14645386 78.71585846 C-469.81984777 80.45286909 -487.13132289 83.7479357 -504.49484253 87.36746979 C-505.90032349 87.64880768 -505.90032349 87.64880768 -507.334198 87.93582916 C-533.77514828 93.25971578 -560.20576953 102.75152408 -584.49484253 114.36746979 C-585.47307983 114.83121002 -586.45131714 115.29495026 -587.459198 115.77274323 C-600.10038353 121.80617372 -612.33894865 128.35181213 -624.27999878 135.67606354 C-625.00074585 136.11805084 -625.72149292 136.56003815 -626.46408081 137.01541901 C-628.51213696 138.32124885 -628.51213696 138.32124885 -630.287323 139.89530182 C-631.98839272 141.33796886 -633.46157514 142.44766499 -635.49484253 143.36746979 C-638.96639196 143.05995064 -641.26189171 142.50296224 -644.49484253 141.36746979 C-645.5957019 140.99912018 -646.69656128 140.63077057 -647.83078003 140.25125885 C-651.15925968 139.11552762 -654.47514054 137.95091179 -657.78897095 136.77353668 C-677.04552154 129.9550735 -696.56703958 124.19362999 -716.20724487 118.59647369 C-719.61950525 117.62213852 -723.02276299 116.62155413 -726.42062378 115.59793854 C-761.31989202 105.13994368 -797.59196616 97.71262116 -833.59640503 92.28934479 C-837.56917698 91.689543 -841.52006824 91.00503085 -845.47203064 90.28084564 C-854.842949 88.57182352 -864.21536369 87.3387633 -873.68234253 86.30496979 C-875.22133972 86.13348311 -876.76032064 85.96185035 -878.29928589 85.79007721 C-886.71227186 84.85777839 -895.12908167 83.96368698 -903.55734253 83.17996979 C-904.3200647 83.10834625 -905.08278687 83.03672272 -905.86862183 82.96292877 C-908.40938567 82.73964541 -910.95071674 82.54876038 -913.49484253 82.36746979 C-914.68464722 82.2806192 -915.8744519 82.19376862 -917.10031128 82.10428619 C-931.50945535 81.13697793 -945.93369288 81.12503602 -960.36984253 81.11746979 C-961.36855503 81.11658607 -961.36855503 81.11658607 -962.38744354 81.11568451 C-996.29325318 81.09458402 -1030.0564431 82.37325015 -1063.49484253 88.36746979 C-1064.40556519 88.52328522 -1065.31628784 88.67910065 -1066.25460815 88.83963776 C-1158.24946026 104.60017714 -1241.92421205 150.80171532 -1296.49484253 227.36746979 C-1339.63971222 289.55384684 -1360.8930868 363.9041802 -1368.12277222 438.62088776 C-1368.37084848 441.11890501 -1368.63453493 443.61542117 -1368.91378784 446.11014557 C-1371.56028537 469.88381807 -1371.76686835 493.60070822 -1371.74484253 517.49246979 C-1371.74450893 518.28201931 -1371.74417534 519.07156883 -1371.74383163 519.8850441 C-1371.73024307 543.94187006 -1371.31292353 567.76299938 -1368.49484253 591.67996979 C-1368.33878036 593.02067535 -1368.33878036 593.02067535 -1368.17956543 594.38846588 C-1363.57192994 633.53014397 -1356.37147343 672.37090837 -1348.93692017 711.06064606 C-1348.37476658 713.99404313 -1347.81935862 716.92869477 -1347.26422119 719.86342621 C-1344.17083552 736.2039731 -1340.8401192 752.48390112 -1337.28781128 768.73075104 C-1336.59905622 771.88952426 -1335.91660749 775.04957943 -1335.23744202 778.21042633 C-1331.79422955 794.22801568 -1328.16891328 810.18435596 -1324.26828003 826.09793854 C-1321.31331306 838.16003097 -1318.46340607 850.24769788 -1315.61627197 862.33562469 C-1314.78584552 865.85991085 -1313.95299353 869.38362177 -1313.11984253 872.90726471 C-1312.70197482 874.67748944 -1312.28531485 876.44799968 -1311.86984253 878.21878815 C-1309.51037962 888.26954714 -1307.03292731 898.26155092 -1304.22454834 908.19695282 C-1302.55661386 914.09869292 -1301.05732673 920.03040146 -1299.61984253 925.99246979 C-1297.37311431 935.14254053 -1294.85938401 944.18440546 -1292.17330933 953.21439362 C-1289.96330238 960.67066465 -1287.92155795 968.16204297 -1285.93234253 975.67996979 C-1283.72280471 984.00274653 -1281.3911508 992.25662303 -1278.71139526 1000.44095612 C-1277.39653466 1004.46216941 -1276.15750685 1008.49793673 -1274.97920227 1012.56150055 C-1270.98158454 1026.33717438 -1266.64142442 1040.00727191 -1262.30734253 1053.67996979 C-1262.0900927 1054.3655471 -1261.87284286 1055.05112442 -1261.6490097 1055.75747681 C-1236.5945195 1134.77632464 -1207.7082141 1212.54424311 -1149.49484253 1326.36746979 C-1148.76732788 1327.62164703 -1148.76732788 1327.62164703 -1148.02511597 1328.90116119 C-1137.29585782 1347.36723734 -1125.74936657 1365.59808209 -1112.49484253 1382.36746979 C-1111.53964722 1383.59143463 -1111.53964722 1383.59143463 -1110.56515503 1384.84012604 C-1108.56757026 1387.37120233 -1106.53477941 1389.87043594 -1104.49484253 1392.36746979 C-1103.77812378 1393.2711026 -1103.06140503 1394.17473541 -1102.32296753 1395.10575104 C-1075.73440295 1427.74871806 -1039.68033297 1458.64796796 -996.49484253 1464.36746979 C-956.03901326 1466.95378478 -923.17867888 1453.80004594 -892.97286987 1427.33011627 C-884.26290057 1419.56579427 -876.17378318 1411.48521617 -868.89718628 1402.34012604 C-866.05110069 1398.81838436 -863.09590239 1395.40438875 -860.11984253 1391.99246979 C-854.63432791 1385.6936379 -849.21488331 1379.34350213 -843.83322144 1372.95584869 C-822.47120695 1347.60355642 -822.47120695 1347.60355642 -814.80734253 1339.17996979 C-811.81566093 1335.88804774 -808.9695983 1332.52155672 -806.18234253 1329.05496979 C-801.77346145 1323.60370877 -797.05960273 1318.49033481 -792.27999878 1313.36746979 C-789.52137914 1310.40870957 -786.84872927 1307.38351894 -784.20187378 1304.32450104 C-782.15850822 1301.98187828 -780.07803394 1299.67473557 -777.99484253 1297.36746979 C-775.34370259 1294.43068514 -772.71194082 1291.48144437 -770.11984253 1288.49246979 C-766.66564949 1284.5241643 -763.10353695 1280.65734419 -759.54000854 1276.7876358 C-757.00773553 1274.03308887 -754.5046405 1271.26021903 -752.05734253 1268.42996979 C-747.50509307 1263.18238867 -742.74892234 1258.12094378 -738.02804565 1253.02567291 C-735.67502845 1250.48081736 -733.33470718 1247.92441338 -730.99484253 1245.36746979 C-727.00085053 1241.00774887 -723.00182071 1236.65276021 -718.99484253 1232.30496979 C-718.49017456 1231.75647369 -717.98550659 1231.2079776 -717.46554565 1230.64286041 C-715.18583973 1228.17137462 -712.90101779 1225.71674226 -710.49484253 1223.36746979 C-706.53856725 1224.57683811 -702.89672055 1226.08492865 -699.1960144 1227.93045807 C-670.35560266 1242.24576429 -635.42533574 1252.74543574 -602.93234253 1252.42996979 C-601.10509644 1252.41643463 -601.10509644 1252.41643463 -599.24093628 1252.40262604 C-598.33472534 1252.39102448 -597.4285144 1252.37942291 -596.49484253 1252.36746979 C-597.91979014 1256.62690777 -600.00153189 1259.42398664 -602.93234253 1262.80496979 C-603.83777978 1263.86333567 -604.74135485 1264.92329687 -605.64328003 1265.98465729 C-606.11217651 1266.53605377 -606.581073 1267.08745026 -607.06417847 1267.65555573 C-609.46365081 1270.52673322 -611.75863613 1273.47795961 -614.05734253 1276.42996979 C-640.09344469 1309.72076964 -664.89695232 1323.2767616 -706.03927612 1332.58182526 C-709.69117109 1333.41210631 -713.3374627 1334.26415176 -716.98312378 1335.12137604 C-738.05613063 1340.07248107 -738.05613063 1340.07248107 -745.54953003 1341.67606354 C-764.21480756 1345.68772468 -781.72520456 1351.13752182 -798.49484253 1360.36746979 C-799.90829956 1361.12157135 -799.90829956 1361.12157135 -801.35031128 1361.89090729 C-811.99185382 1367.86336992 -819.69593557 1375.64641369 -825.49484253 1386.36746979 C-825.92925659 1387.11125885 -826.36367065 1387.85504791 -826.81124878 1388.62137604 C-831.40334209 1397.82156299 -830.97838818 1410.98678123 -828.43234253 1420.80496979 C-819.14680839 1445.63837504 -796.92063072 1459.17752362 -774.13156128 1469.93778229 C-709.32275789 1499.26947308 -622.84971241 1501.61761734 -556.45724487 1477.25272369 C-543.45100831 1472.33793377 -530.72198644 1466.99827876 -518.49484253 1460.36746979 C-517.33339722 1459.7448526 -516.1719519 1459.12223541 -514.97531128 1458.48075104 C-500.27290341 1450.3457487 -487.02216804 1440.50396862 -474.16378784 1429.72684479 C-472.31271544 1428.2191252 -470.40785081 1426.7954354 -468.49484253 1425.36746979 C-468.49760791 1426.23147557 -468.49760791 1426.23147557 -468.50042915 1427.11293602 C-469.01601797 1525.7626585 -469.01601797 1525.7626585 -466.49484253 1624.36746979 C-466.46252281 1625.12294098 -466.43020309 1625.87841217 -466.39690399 1626.65677643 C-463.62196283 1722.8868071 -463.62196283 1722.8868071 -447.49484253 1817.36746979 C-447.29390991 1818.13591217 -447.09297729 1818.90435455 -446.88595581 1819.69608307 C-435.39636104 1862.71956971 -413.30176266 1904.15229569 -382.49484253 1936.36746979 C-381.62085815 1937.29430573 -380.74687378 1938.22114166 -379.84640503 1939.17606354 C-368.45316546 1950.9535326 -355.59518254 1960.12122616 -341.49484253 1968.36746979 C-340.89091675 1968.72437897 -340.28699097 1969.08128815 -339.6647644 1969.44901276 C-322.49730169 1979.47906987 -303.90484401 1985.4362816 -284.49484253 1989.36746979 C-283.72092163 1989.52586334 -282.94700073 1989.6842569 -282.14962769 1989.84745026 C-256.96217625 1994.90235248 -231.22064925 1994.47477898 -205.80734253 1991.49246979 C-205.06303986 1991.40542786 -204.31873718 1991.31838593 -203.55187988 1991.22870636 C-191.33887182 1989.77506267 -179.50973822 1987.44369039 -167.55734253 1984.55496979 C-166.46558716 1984.29143707 -165.37383179 1984.02790436 -164.24899292 1983.7563858 C-112.29603339 1971.14504317 -60.31988969 1953.52937643 -20.49484253 1916.36746979 C-19.85595093 1915.77240631 -19.21705933 1915.17734283 -18.55880737 1914.56424713 C-8.38316862 1904.978643 0.44246001 1894.78182009 8.50515747 1883.36746979 C8.9075061 1882.80447174 9.30985474 1882.24147369 9.72439575 1881.6614151 C29.05757739 1854.27204398 39.96332567 1822.4596035 48.50515747 1790.36746979 C48.91912639 1788.85181922 49.33317527 1787.3361905 49.74734497 1785.82059479 C52.10848224 1776.85193385 53.78969579 1767.8002975 55.38015747 1758.66825104 C56.0143159 1755.02729619 56.69163553 1751.39814541 57.41091919 1747.77323151 C59.96181913 1734.85435491 61.92562139 1721.92282013 63.63015747 1708.86746979 C64.13063567 1705.08593615 64.63411635 1701.30480499 65.13796997 1697.52371979 C65.25685577 1696.62844574 65.37574158 1695.73317169 65.49822998 1694.81076813 C66.68808817 1685.89686592 68.05499106 1677.01745921 69.54397583 1668.14896393 C71.24131515 1657.89220248 72.47916002 1647.58630956 73.69848633 1637.26428986 C74.81845106 1627.79786124 76.04418273 1618.36018715 77.44265747 1608.92996979 C79.86267312 1592.51946485 81.72876197 1576.04359217 83.65667725 1559.56961823 C84.42944651 1552.97743299 85.23381304 1546.38972592 86.06765747 1539.80496979 C87.29076696 1530.13323362 88.46609963 1520.45603337 89.63192749 1510.77725983 C90.63143716 1502.48547521 91.64737181 1494.1960948 92.69656372 1485.91043854 C94.86837466 1468.75325041 96.9928875 1451.59134879 98.97930908 1434.41156769 C99.2023821 1432.48700708 99.42733481 1430.56266328 99.65429688 1428.63855743 C99.97102236 1425.94726229 100.28011711 1423.2551939 100.58718872 1420.56278229 C100.72741959 1419.38708931 100.72741959 1419.38708931 100.8704834 1418.18764496 C101.4992198 1412.56524286 101.60304848 1407.02219119 101.50515747 1401.36746979 C102.44488403 1401.68200104 103.3846106 1401.99653229 104.35281372 1402.32059479 C114.59896494 1405.5421142 124.87265788 1407.30165446 135.50515747 1408.61746979 C136.17201569 1408.70001007 136.8388739 1408.78255035 137.52593994 1408.86759186 C141.84926761 1409.39633127 146.17648178 1409.88490423 150.50515747 1410.36746979 C151.34353149 1410.47349518 152.18190552 1410.57952057 153.04568481 1410.68875885 C202.38136407 1416.54481267 256.43352467 1408.3295356 304.50515747 1397.36746979 C305.41797485 1397.16218658 306.33079224 1396.95690338 307.27127075 1396.74539948 C362.43345954 1384.08076012 418.67555816 1355.76376806 459.89968872 1316.82059479 C462.11246818 1314.73719824 464.36764063 1312.75999377 466.69265747 1310.80496979 C479.28383313 1299.79742653 489.38342953 1285.9199678 495.50515747 1270.36746979 C495.87511841 1269.45996979 496.24507935 1268.55246979 496.62625122 1267.61746979 C499.40487575 1257.34273376 499.08436416 1245.18277792 494.50515747 1235.55496979 C487.21744002 1223.33180805 476.92323164 1216.57507023 463.43484497 1212.42215729 C460.43163047 1211.82820679 457.56279248 1211.53424988 454.50515747 1211.36746979 C453.86948853 1211.33185944 453.23381958 1211.29624908 452.57888794 1211.25955963 C431.8698368 1210.27156025 411.60833639 1215.04279188 391.36868286 1218.81229401 C374.48898239 1221.9525592 357.60731962 1224.39654405 340.56765747 1226.49246979 C339.86587372 1226.57918945 339.16408997 1226.66590912 338.44104004 1226.75525665 C322.72226839 1228.68657094 307.21271085 1229.60705096 291.38015747 1229.61746979 C290.45540619 1229.61814453 289.53065491 1229.61881927 288.57788086 1229.61951447 C261.49144227 1229.58824796 234.74205097 1228.1172765 210.53250122 1214.94168854 C207.77811526 1213.21368554 207.77811526 1213.21368554 205.50515747 1213.36746979 C209.86605728 1206.35385672 214.23086066 1199.34343178 218.68875122 1192.39090729 C237.97021159 1162.31703572 256.06757138 1131.54390892 273.50515747 1100.36746979 C274.11585083 1099.27901764 274.72654419 1098.19056549 275.35574341 1097.06912994 C285.14178797 1079.60186047 294.46541358 1061.93022268 303.56739807 1044.09772491 C306.12291403 1039.09710343 308.72611449 1034.1228837 311.34719849 1029.15628815 C317.49119337 1017.5038137 323.26551325 1005.69737509 328.88943481 993.78592682 C330.2789576 990.84605101 331.67580827 987.90978957 333.07548523 984.97473907 C367.95951637 911.75375141 396.89138182 836.26291315 422.78738403 759.45780182 C424.22484267 755.19462963 425.67179254 750.93479665 427.12234497 746.67606354 C430.71585634 736.08275031 433.98917766 725.46801812 436.88113403 714.66287994 C438.04410546 710.38500149 439.27975391 706.12779467 440.50515747 701.86746979 C442.96584096 693.2752471 445.40983859 684.67955343 447.7673645 676.05838776 C448.2990882 674.11905664 448.8343534 672.18069528 449.37185669 670.24295807 C454.5560351 651.5138034 459.01098086 632.70096517 463.1073761 613.70772552 C464.01400179 609.52984899 464.97797082 605.3705318 465.98703003 601.21628571 C468.58465383 590.48787537 470.56988029 579.66972867 472.50515747 568.80496979 C472.8596621 566.82660457 473.21423633 564.84825182 473.56887817 562.86991119 C474.25500917 559.03522701 474.93744054 555.19991034 475.61697388 551.36405182 C476.30991024 547.45514036 477.01878687 543.54942052 477.73562622 539.64481354 C485.00572477 499.1911481 488.73202678 457.59997654 488.63552856 416.51029205 C488.63015122 413.80182066 488.63553035 411.09351448 488.64187622 408.38504791 C488.64931955 392.29838692 488.29845663 376.20194573 486.13015747 360.24246979 C485.99859253 359.24167389 485.86702759 358.24087799 485.73147583 357.20975494 C485.33649233 354.2601998 484.92536807 351.31352808 484.50515747 348.36746979 C484.38382446 347.51282135 484.26249146 346.65817291 484.13748169 345.77762604 C482.85523585 336.95887888 481.20417783 328.43969537 478.58718872 319.90262604 C477.82508763 317.41272896 477.11578805 314.94162707 476.45437622 312.42606354 C467.5665446 279.24743573 447.12555759 253.97763673 424.17312622 229.28153229 C422.18244564 227.10723109 420.25180686 224.91203551 418.33328247 222.67606354 C413.81075965 217.48923959 408.94209255 212.65861836 404.06765747 207.80496979 C403.16466919 206.89811432 402.26168091 205.99125885 401.33132935 205.05692291 C396.74971868 200.48194746 392.11598957 196.03857072 387.20120239 191.82279205 C385.04543346 189.97299522 382.96671162 188.04468708 380.88015747 186.11746979 C375.3100842 181.09763172 369.44808688 176.5109005 363.51785278 171.92996979 C361.34553527 170.24355153 359.18644923 168.54109994 357.02859497 166.83621979 C348.73679988 160.30143518 340.40758951 154.05733423 331.50515747 148.36746979 C330.2813503 147.55800924 329.05877022 146.74669152 327.83718872 145.93387604 C290.49629665 121.21808802 250.66146758 102.22738124 208.50515747 87.36746979 C207.4436145 86.98639069 206.38207153 86.60531158 205.2883606 86.21268463 C162.67139852 70.97471845 116.94120836 61.78394712 71.89942932 57.59577179 C70.3099718 57.44421158 68.72119588 57.28531488 67.13322449 57.11890411 C47.73447392 55.09680627 28.39625382 55.05756957 8.91555786 55.1067276 C4.37697086 55.11806142 -0.16138004 55.11137346 -4.6999588 55.09985924 C-33.75157537 55.03714305 -62.52674239 55.97923739 -91.36984253 59.74246979 Z " fill="#000000" transform="translate(1429.4948425292969,-0.36746978759765625)"/>
<path d="M0 0 C2.31224846 0.00522767 4.62448343 0.00715075 6.93673706 0.00866318 C30.42479395 0.03538151 53.73724318 0.62685329 77.0920105 3.31765366 C78.18497437 3.44043686 79.27793823 3.56322006 80.40402222 3.68972397 C86.66057413 4.41474499 92.87423607 5.31775057 99.0920105 6.31765366 C100.98130792 6.60688272 102.87063189 6.89593842 104.75997925 7.18484116 C126.75250767 10.62684986 148.54787635 15.12790384 169.84738159 21.63259506 C171.87979126 22.25288455 173.91628295 22.85622771 175.95529175 23.45437241 C197.53943217 29.95012744 218.61731 37.90592493 239.0920105 47.31765366 C240.04414429 47.75190659 240.99627808 48.18615952 241.9772644 48.63357162 C269.7258151 61.3530128 295.64680669 77.06208186 320.0920105 95.31765366 C321.00055786 95.99441147 321.00055786 95.99441147 321.92745972 96.68484116 C332.94379932 104.92602465 343.41789513 113.78363102 353.58029175 123.05202866 C354.97754473 124.31238127 356.38146194 125.56580778 357.81002808 126.79055405 C363.51790714 131.69355843 368.8473428 136.92398972 374.1545105 142.25515366 C375.01367065 143.11044662 375.87283081 143.96573959 376.75802612 144.84695053 C381.7461442 149.84268987 386.50072536 154.95752994 391.0920105 160.31765366 C392.13673212 161.49794861 393.18357401 162.67637059 394.2326355 163.85280991 C428.85891213 202.97429274 435.79072424 245.97811581 435.47873306 297.43941879 C435.46679598 299.54295633 435.45984031 301.6464642 435.45391846 303.7500267 C435.38022269 326.37910641 434.61393144 348.81823175 432.0920105 371.31765366 C432.00008423 372.15236191 431.90815796 372.98707016 431.81344604 373.8470726 C429.85150431 391.61115748 427.82514721 409.38218134 424.18185425 426.89187241 C423.26637451 431.31626135 422.48006485 435.75879644 421.72091675 440.21218491 C418.92311153 456.6004436 415.78161751 472.79407825 411.88497925 488.96413803 C410.87368664 493.24095924 409.9215696 497.52998698 408.97125244 501.82070541 C404.01731654 524.18080212 398.4660823 546.32023068 391.73117065 568.21462631 C390.81228643 571.23802917 389.95029699 574.27656449 389.0920105 577.31765366 C387.51013951 582.89342205 385.87726598 588.45233028 384.2170105 594.00515366 C383.88636597 595.11600327 383.88636597 595.11600327 383.54904175 596.24929428 C356.51921505 686.32354918 321.22164501 773.54485708 280.92990112 858.44216537 C279.27455604 861.93027535 277.62797486 865.42246792 275.9826355 868.91530991 C271.60053197 878.18864102 267.10754995 887.37624513 262.27536011 896.42385483 C259.51235062 901.59963316 256.80941153 906.8027083 254.14279175 912.02859116 C246.8018563 926.40613972 239.36818927 940.67503526 231.318573 954.67312241 C229.01860808 958.67296921 226.77111916 962.69764957 224.552948 966.74343491 C216.77430947 980.92892181 208.64615048 994.82013616 200.18966675 1008.60671616 C195.82508633 1015.72641876 191.57830363 1022.91253582 187.37667847 1030.12942123 C184.94635945 1034.2805695 182.45984395 1038.38739861 179.85372925 1042.43093491 C179.3725061 1043.17770493 178.89128296 1043.92447495 178.39547729 1044.69387436 C177.96533325 1045.22972153 177.53518921 1045.7655687 177.0920105 1046.31765366 C176.4320105 1046.31765366 175.7720105 1046.31765366 175.0920105 1046.31765366 C173.0763855 1044.12234116 173.0763855 1044.12234116 170.8420105 1041.19265366 C170.09435425 1040.24132553 169.346698 1039.28999741 168.5763855 1038.30984116 C167.0920105 1035.31765366 167.0920105 1035.31765366 167.50997925 1032.61062241 C169.76355662 1027.91984284 172.18510404 1023.33535018 174.6545105 1018.75515366 C180.43542544 1007.84095293 185.49160559 996.77445305 190.0920105 985.31765366 C190.56114868 984.17562485 190.56114868 984.17562485 191.0397644 983.01052475 C201.04507384 958.49084642 205.66402392 932.44896872 209.0920105 906.31765366 C209.22478394 905.3258812 209.35755737 904.33410873 209.49435425 903.31228256 C216.27953218 850.12677969 207.89678027 795.01946344 201.55343628 742.17019272 C198.51899405 716.83500841 195.91371762 691.66730115 195.9045105 666.13015366 C195.90301498 665.04504501 195.90301498 665.04504501 195.90148926 663.93801498 C195.90371912 649.71065499 196.68699251 635.58674302 198.2795105 621.44265366 C198.46525635 619.78495956 198.46525635 619.78495956 198.65475464 618.0937767 C201.10670867 596.97460117 203.97126969 575.80558724 207.73556519 554.87893295 C212.73811401 526.9666385 214.42884342 498.88458358 214.9670105 470.56765366 C214.99274139 469.34820053 215.01847229 468.12874741 215.04498291 466.87234116 C215.11412918 463.3593668 215.16535283 459.84665169 215.209198 456.33327866 C215.22866989 455.29721481 215.24814178 454.26115097 215.26820374 453.19369125 C215.75520901 388.19678676 167.18598589 312.6001015 133.6545105 259.94265366 C133.01666626 258.93919907 132.37882202 257.93574448 131.72164917 256.90188217 C127.41148157 250.19175401 122.82125247 243.7371347 118.0920105 237.31765366 C117.21584127 236.09378375 116.34286234 234.8676156 115.474823 233.63796616 C110.27567093 226.27999663 104.92737565 219.06880441 99.38058472 211.96950912 C98.06148734 210.27852526 96.75029982 208.58160986 95.43966675 206.88405991 C89.39498095 199.08615355 83.09823587 191.5473963 76.63009644 184.09841537 C75.04664439 182.26512978 73.47774703 180.42025571 71.912323 178.57155991 C65.10598774 170.53359204 65.10598774 170.53359204 57.76290894 162.98952866 C56.11349425 161.33914997 54.6148049 159.62552596 53.1076355 157.84499741 C48.68930134 152.764233 43.94489058 148.02018323 39.17672729 143.27199936 C37.65709382 141.75772786 36.14288532 140.23817936 34.62911987 138.71804428 C29.83239576 133.91803799 24.98707933 129.22415741 19.82858276 124.80910873 C17.24510744 122.59029097 14.77143359 120.2638016 12.2795105 117.94265366 C7.68776369 113.70578949 2.98246936 109.66359483 -1.88845825 105.74734116 C-4.1146611 103.95601105 -6.32287066 102.15027063 -8.52127075 100.32546616 C-17.63768027 92.7859491 -27.02063426 85.73097638 -36.67752075 78.89968491 C-38.84543941 77.36201931 -41.00278832 75.81057715 -43.1579895 74.25515366 C-74.8555449 51.47415237 -109.37191208 32.41431391 -144.9079895 16.31765366 C-141.83224915 14.60830814 -139.01696013 13.79789945 -135.56814575 13.13405991 C-133.99154175 12.82843124 -133.99154175 12.82843124 -132.38308716 12.51662827 C-131.25692993 12.30659164 -130.13077271 12.09655502 -128.9704895 11.88015366 C-127.7953479 11.65916 -126.6202063 11.43816635 -125.40945435 11.21047592 C-109.08896373 8.18926992 -92.70528279 6.12675248 -76.2204895 4.25515366 C-75.50532166 4.17288528 -74.79015381 4.09061691 -74.05331421 4.00585556 C-68.67633114 3.39129693 -63.29492472 2.83750181 -57.9079895 2.31765366 C-56.98712555 2.22724808 -56.0662616 2.1368425 -55.11749268 2.04369736 C-36.74036931 0.28956676 -18.44179281 -0.04447227 0 0 Z " fill="#336791" transform="translate(1424.9079895019531,111.68234634399414)"/>
<path d="M0 0 C0.71471466 -0.00962769 1.42942932 -0.01925537 2.165802 -0.0291748 C15.91117206 -0.1877047 29.07066457 1.54703487 42.125 6.0625 C43.25156006 6.449823 43.25156006 6.449823 44.40087891 6.8449707 C65.41679909 14.36287916 80.30563123 30.35476596 89.89776611 50.18379211 C95.18552315 61.70210955 98.25525109 73.95240776 100.8125 86.3125 C100.97697632 87.09130524 101.14145264 87.87011047 101.31091309 88.67251587 C107.56633502 118.32168066 112.38379831 148.13479617 115.50537109 178.27441406 C115.82174356 181.23030683 115.82174356 181.23030683 116.38916016 183.78100586 C116.99839565 186.95545957 117.18433124 190.07409547 117.375 193.30078125 C117.41560547 193.96281052 117.45621094 194.62483978 117.49804688 195.30693054 C117.6269535 197.41277205 117.75140646 199.51884047 117.875 201.625 C117.99890085 203.72042467 118.12388604 205.81576006 118.25195312 207.91093445 C118.36852629 209.81977667 118.48125137 211.72885276 118.59375 213.63793945 C118.78422733 216.1265456 119.05423853 218.61010962 119.39575195 221.08251953 C120.056891 226.17442517 120.0366798 231.25093031 120.04296875 236.37890625 C120.04729416 237.43765457 120.05161957 238.49640289 120.05607605 239.5872345 C120.06617517 243.01653543 120.06625753 246.44568717 120.0625 249.875 C120.06059662 251.63580902 120.06059662 251.63580902 120.05865479 253.43218994 C119.90358555 328.52030112 101.90454842 393.7887546 71.4708252 461.94204712 C65.21657808 475.95483066 59.03916214 489.94551515 53.62896729 504.31109619 C52.7492236 506.64637306 51.86534161 508.98007174 50.98193359 511.31396484 C35.85646045 551.23955873 35.85646045 551.23955873 23.48388672 592.08129883 C23.00359382 593.84128149 22.45190729 595.58177812 21.875 597.3125 C-30.6370941 599.19916206 -79.95770879 574.35962382 -117.6875 539.4375 C-152.64459446 506.60298774 -176.1687878 461.82112962 -185.75 415 C-185.95625 414.00516602 -186.1625 413.01033203 -186.375 411.98535156 C-189.19067382 397.77442637 -190.44939324 383.82729021 -190.33081055 369.36328125 C-190.31239549 367.04936757 -190.3103032 364.73585499 -190.31054688 362.421875 C-190.28044728 348.87020802 -189.12681295 335.72114774 -187.125 322.3125 C-184.49708088 303.60140018 -182.66411818 284.91533212 -181.4375 266.0625 C-181.37692413 265.13307587 -181.31634827 264.20365173 -181.25393677 263.24606323 C-181.07816189 260.51322769 -180.90682627 257.78016553 -180.73828125 255.046875 C-180.69052551 254.27563797 -180.64276978 253.50440094 -180.59356689 252.70979309 C-180.4270901 249.91119042 -180.27519693 247.11202789 -180.125 244.3125 C-180.08493395 243.59602232 -180.0448679 242.87954464 -180.00358772 242.14135551 C-179.25579848 228.61930848 -178.9622468 215.13899328 -178.95703125 201.59765625 C-178.95379893 199.56636026 -178.95043358 197.53506448 -178.94694519 195.50376892 C-178.94101184 191.2691901 -178.93909894 187.0346315 -178.93969727 182.80004883 C-178.93977797 178.54707536 -178.93291475 174.29421088 -178.91918945 170.04125977 C-178.41609145 122.70630379 -178.41609145 122.70630379 -182.6796875 75.625 C-183.17979084 70.4531996 -183.33355311 66.82541299 -180 62.65234375 C-176.52565043 59.87014976 -172.94208253 57.58792263 -169.125 55.3125 C-167.48505424 54.28615079 -165.84576606 53.25875033 -164.20703125 52.23046875 C-145.81065461 40.88309162 -126.56054636 31.5124547 -106.5625 23.375 C-105.90171448 23.10550537 -105.24092896 22.83601074 -104.56011963 22.55834961 C-91.74234447 17.35628507 -78.7425977 12.84409434 -65.375 9.25 C-63.98039551 8.87439941 -63.98039551 8.87439941 -62.55761719 8.49121094 C-53.47867069 6.08478041 -44.37606034 3.94516011 -35.125 2.3125 C-34.45774902 2.19390625 -33.79049805 2.0753125 -33.10302734 1.953125 C-22.14841117 0.12508873 -11.07743587 0.08355452 0 0 Z " fill="#336791" transform="translate(817.125,597.6875)"/>
<path d="M0 0 C0.98490417 -0.00200409 1.96980835 -0.00400818 2.98455811 -0.006073 C16.17708677 -0.01262049 29.24493093 0.37379473 42.375 1.6875 C43.04889771 1.7548938 43.72279541 1.8222876 44.41711426 1.89172363 C54.91229271 2.97076424 54.91229271 2.97076424 58.75 4.25 C58.08468186 31.8735679 54.8167588 58.90855333 50.41162109 86.15527344 C39.97708928 150.71377747 38.27260124 213.31333271 46.83374023 278.22729492 C48.68593281 292.30331224 50.14345176 306.40314304 51.49389648 320.53540039 C51.57169846 321.34448349 51.64950043 322.15356659 51.72966003 322.98716736 C51.87348389 324.48879836 52.01526035 325.99062759 52.15449524 327.49269104 C52.43308574 330.41875621 52.75942372 333.3039442 53.26538086 336.20019531 C53.88867517 340.12271045 54.1105325 344.01217173 54.30078125 347.9765625 C54.34262039 348.84020416 54.38445953 349.70384583 54.42756653 350.59365845 C54.89095045 361.12378069 54.93605486 371.65553809 54.93530273 382.19433594 C54.93749299 385.61405838 54.95574732 389.03345896 54.97460938 392.453125 C55.0227575 410.80912307 54.30870751 429.06153907 50.4375 447.0625 C50.2194873 448.10744629 50.00147461 449.15239258 49.77685547 450.22900391 C45.76037786 468.99470339 40.13908661 488.41887239 30.75 505.25 C28.18039913 502.0740942 26.43778546 498.79320233 24.67578125 495.11328125 C24.39110992 494.52146561 24.1064386 493.92964996 23.81314087 493.31990051 C23.20642551 492.05677506 22.60176313 490.79266177 21.99899292 489.52764893 C21.05190211 487.54026125 20.09893761 485.5557785 19.14477539 483.57177734 C16.55937571 478.18727174 13.98288874 472.79965187 11.5078125 467.36328125 C6.94542782 457.34556081 1.65971964 447.84611073 -3.8125 438.296875 C-7.2828498 432.22770643 -10.62308833 426.09290604 -13.9375 419.9375 C-17.64406443 413.05819102 -21.37282891 406.1949794 -25.1875 399.375 C-36.65496624 378.81975415 -47.62671867 358.00183102 -58.33398438 337.0423584 C-59.23175379 335.28570217 -60.13148178 333.53004734 -61.03125 331.77441406 C-81.20794404 292.31051194 -98.73093932 251.76225387 -113.03564453 209.80810547 C-114.0635064 206.796433 -115.1042569 203.7898257 -116.15234375 200.78515625 C-122.52859264 182.34269479 -126.85727839 163.45442417 -130.25 144.25 C-130.50209229 142.8263916 -130.50209229 142.8263916 -130.75927734 141.37402344 C-135.06721467 115.88353418 -136.55514424 87.02673624 -128.25 62.25 C-128.03069824 61.57936523 -127.81139648 60.90873047 -127.58544922 60.21777344 C-120.60526161 39.73209926 -105.1969889 24.93241562 -86.25 15.25 C-69.62134171 7.21963921 -51.49734519 3.31641174 -33.25 1.25 C-32.41726563 1.15428711 -31.58453125 1.05857422 -30.7265625 0.95996094 C-20.51123772 -0.05213978 -10.25505638 0.01012903 0 0 Z " fill="#336791" transform="translate(1524.25,587.75)"/>
<path d="M0 0 C2.93412685 1.75955488 5.47802362 3.69436963 8 6 C8.845625 6.763125 9.69125 7.52625 10.5625 8.3125 C22.71709727 21.71372263 30.98744097 37.52157552 30.33203125 56.04296875 C28.53944425 72.00753764 17.5296922 83.71818693 7 95 C5.84918628 96.32903709 4.70310316 97.66218976 3.5625 99 C-3.90176616 107.52813857 -12.0454998 115.06487807 -21 122 C-21.55816406 122.4345752 -22.11632812 122.86915039 -22.69140625 123.31689453 C-31.98526426 130.50431494 -41.57623099 136.58988983 -52 142 C-52.69480469 142.36834961 -53.38960937 142.73669922 -54.10546875 143.11621094 C-76.74686682 155.00397595 -101.90029072 162.23145778 -127.3125 164.6875 C-128.60994141 164.81342529 -129.90738281 164.93935059 -131.24414062 165.0690918 C-177.4540164 169.33985359 -229.27635892 163.43587716 -270 140 C-263.98856379 133.07412737 -251.83881402 131.80552288 -243.3125 129.8125 C-241.47993652 129.37574951 -241.47993652 129.37574951 -239.61035156 128.93017578 C-232.02403772 127.13042072 -224.41942935 125.4153331 -216.80859375 123.72265625 C-215.49819878 123.4305703 -215.49819878 123.4305703 -214.16133118 123.13258362 C-209.85855589 122.17425812 -205.55449279 121.22276562 -201.24731445 120.28442383 C-190.68039348 117.96141248 -180.33617617 115.19195435 -170 112 C-168.94167969 111.68047363 -167.88335938 111.36094727 -166.79296875 111.03173828 C-129.37187288 99.61224394 -102.83376844 81.60900534 -78.92578125 50.75 C-74.21625861 44.68273372 -69.33181767 38.75564429 -64.47216797 32.80859375 C-63.17270629 31.21217383 -61.88431606 29.60675566 -60.59765625 28 C-55.12576576 21.19229538 -49.32188135 14.75225513 -43.32470703 8.40820312 C-42.20298176 7.21577567 -41.09765815 6.00795165 -39.99609375 4.796875 C-28.10441195 -7.89494317 -15.20398333 -7.07420418 0 0 Z " fill="#346791" transform="translate(933,1269)"/>
<path d="M0 0 C0.67546875 0.556875 1.3509375 1.11375 2.046875 1.6875 C23.8226304 17.8609171 52.44570377 23.59315364 78.796875 26.6875 C79.54993423 26.77596191 80.30299347 26.86442383 81.07887268 26.95556641 C87.27458717 27.63022386 93.39917848 27.86172475 99.62890625 27.890625 C100.64654053 27.89759399 101.6641748 27.90456299 102.71264648 27.91174316 C106.01159821 27.92913636 109.31037921 27.93547247 112.609375 27.9375 C114.30868668 27.93901062 114.30868668 27.93901062 116.04232788 27.94055176 C151.43558284 27.91936211 187.14704854 25.2104035 221.796875 17.6875 C225.45965087 16.93795804 229.12744696 16.21617048 232.796875 15.5 C233.6825415 15.32082031 234.56820801 15.14164063 235.48071289 14.95703125 C240.35164213 14.00796236 244.83473625 13.49198095 249.796875 13.6875 C245.28774791 19.35839897 240.43559236 23.59381001 234.609375 27.875 C233.73007324 28.52573486 232.85077148 29.17646973 231.94482422 29.84692383 C185.60470034 63.74210119 134.17585973 81.93323056 77.796875 90.6875 C76.77575623 90.84892487 76.77575623 90.84892487 75.73400879 91.01361084 C53.83379599 94.44497154 32.00039015 95.07386875 9.859375 95.125 C8.58081635 95.13126404 7.30225769 95.13752808 5.98495483 95.14398193 C-18.79855311 95.22083619 -42.84834362 94.26428132 -65.203125 82.6875 C-66.40435454 33.94068111 -66.40435454 33.94068111 -50.203125 15.6875 C-40.95536923 7.906857 -30.33071837 3.886218 -18.953125 0.3125 C-18.10121582 0.03720459 -17.24930664 -0.23809082 -16.37158203 -0.52172852 C-10.56499213 -2.27006514 -5.51885251 -3.28782703 0 0 Z " fill="#346791" transform="translate(1602.203125,1258.3125)"/>
<path d="M0 0 C5.22726367 4.86788929 7.91968872 9.91676285 8.4375 17.12109375 C8.10532652 26.25586441 1.77385247 33.18118504 -4.58203125 39.20703125 C-9.08924204 42.9318844 -13.88789356 45.73340511 -19.125 48.30859375 C-20.00285156 48.74429688 -20.88070312 49.18 -21.78515625 49.62890625 C-33.21266726 54.33145035 -48.6912227 54.44421067 -60.3125 50.24609375 C-62.27905221 49.32666674 -64.21960925 48.3488628 -66.125 47.30859375 C-67.51332031 46.5815625 -67.51332031 46.5815625 -68.9296875 45.83984375 C-80.07694194 39.39780436 -89.38360745 29.83166933 -95.125 18.30859375 C-95.46144531 17.695 -95.79789063 17.08140625 -96.14453125 16.44921875 C-99.52127094 9.72657717 -98.34128892 2.45429113 -97.125 -4.69140625 C-95.805 -4.69140625 -94.485 -4.69140625 -93.125 -4.69140625 C-93.125 -5.35140625 -93.125 -6.01140625 -93.125 -6.69140625 C-69.04248641 -24.20596159 -22.70866959 -18.07509914 0 0 Z " fill="#FDFEFE" transform="translate(881.125,645.69140625)"/>
<path d="M0 0 C3.34841388 3.14735439 5.73740674 6.27438714 6.4375 10.875 C6.17315229 21.51499538 -2.29227726 30.64837274 -9.55322266 37.65869141 C-20.707996 48.00029194 -33.89972335 53.50522878 -49.078125 53.33203125 C-63.09562524 52.14529069 -75.62056244 45.1151367 -85.125 34.875 C-88.75973509 30.32030715 -90.71639056 26.30939118 -91.4375 20.4375 C-90.66394834 14.35959407 -86.97781887 10.34276058 -82.37109375 6.578125 C-73.85935254 0.91297928 -63.96924979 -2.9089609 -54 -5 C-53.11699219 -5.20367188 -52.23398438 -5.40734375 -51.32421875 -5.6171875 C-35.3444366 -8.8440868 -13.89834987 -9.49849982 0 0 Z " fill="#FDFDFD" transform="translate(1524,622)"/>
</svg>
