<?xml version="1.0" encoding="UTF-8"?>
<svg version="1.1" xmlns="http://www.w3.org/2000/svg" width="225" height="225">
<path d="M0 0 C74.25 0 148.5 0 225 0 C225 74.25 225 148.5 225 225 C150.75 225 76.5 225 0 225 C0 150.75 0 76.5 0 0 Z " fill="#FF4438" transform="translate(0,0)"/>
<path d="M0 0 C74.25 0 148.5 0 225 0 C225 74.25 225 148.5 225 225 C150.75 225 76.5 225 0 225 C0 150.75 0 76.5 0 0 Z M43.22167969 33.86474609 C41.75979494 34.61175313 40.28910737 35.34181797 38.80957031 36.05322266 C34.31195237 38.2417864 30.47748024 40.36244527 27 44 C25.56422678 48.92014968 26.03680266 53.01601377 27 58 C27.27070312 59.41152344 27.27070312 59.41152344 27.546875 60.8515625 C28.22032295 63.63569487 29.06760948 66.29162753 30 69 C30.38671875 70.17046875 30.7734375 71.3409375 31.171875 72.546875 C34.06265198 83.01653066 34.06265198 83.01653066 40.71875 90.9453125 C44.38332537 91.03316191 46.66857399 88.7163638 49.4375 86.5625 C50.69415364 85.62559635 51.95332274 84.69205824 53.21484375 83.76171875 C53.84890137 83.2929834 54.48295898 82.82424805 55.13623047 82.34130859 C59.89224958 78.91851989 64.96224614 75.98288058 70 73 C71.09828125 72.33097656 72.1965625 71.66195312 73.328125 70.97265625 C82.22175603 65.68317935 91.36766541 61.73165505 101 58 C101.33 58.33 101.66 58.66 102 59 C101.58226318 59.44279297 101.16452637 59.88558594 100.73413086 60.34179688 C98.80044849 62.39314917 96.86896851 64.44656317 94.9375 66.5 C94.28072266 67.19609375 93.62394531 67.8921875 92.94726562 68.609375 C89.09402167 72.70937841 85.33428506 76.87154503 81.64575195 81.12011719 C79.19266027 83.92219492 76.66255593 86.64957185 74.125 89.375 C69.8013584 94.03833223 65.52181547 98.73696176 61.27734375 103.47265625 C58.7019019 106.33082242 56.10310304 109.16706617 53.5 112 C49.36913732 116.49709673 45.26602006 121.01786336 41.1875 125.5625 C38.92137684 128.08760867 36.64809385 130.60616628 34.375 133.125 C30.54455817 137.38397664 26.74816867 141.66845878 23 146 C22.5575293 146.51079102 22.11505859 147.02158203 21.65917969 147.54785156 C19.07799908 150.53111707 16.50965798 153.52409658 13.9609375 156.53515625 C12.15019959 158.67262189 10.3131649 160.74597347 8.4140625 162.80859375 C3.84073292 167.76738306 3.84073292 167.76738306 2.625 174.125 C3.10646528 176.42792595 3.10646528 176.42792595 4 179 C4.40347656 180.23234375 4.80695312 181.4646875 5.22265625 182.734375 C11.15102194 200.39000393 11.15102194 200.39000393 23 214 C27.19691287 214.10334396 28.73467246 213.23417572 31.89453125 210.4453125 C32.88229213 209.35200088 33.85432107 208.24432792 34.8125 207.125 C35.33384521 206.53783203 35.85519043 205.95066406 36.39233398 205.34570312 C40.28654969 200.92656554 44.04221153 196.39282763 47.73046875 191.80078125 C49.77925046 189.27242241 51.86834569 186.78934015 53.98266602 184.31616211 C63.45450597 173.23661725 72.31788608 161.7047758 81 150 C81.34611328 151.81371094 81.34611328 151.81371094 81.69921875 153.6640625 C85.48072892 172.90104069 90.58738342 191.73859014 107.4140625 203.71875 C120.5376303 212.00731914 135.37791175 214.07423801 150.5625 210.8125 C166.59919893 206.6230829 179.18825382 199.61937246 191 188 C191.75023437 187.26265625 192.50046875 186.5253125 193.2734375 185.765625 C206.74371359 171.68091526 221.16580914 147.72450949 222.16015625 127.7890625 C222.16527925 124.99209132 222.16527925 124.99209132 220.9375 122.625 C218.99682928 120.7132479 218.99682928 120.7132479 215.75390625 120.4921875 C210.55665409 121.19524971 209.07169258 123.48156679 206 127.5 C205.47873535 128.14348389 204.9574707 128.78696777 204.42041016 129.44995117 C203.38972271 130.72235134 202.36681507 132.00110059 201.35253906 133.28662109 C189.95568287 147.7240104 174.91080801 160.49638403 156 163 C142.52476496 164.13207456 130.80337469 163.14436848 120.06640625 154.09765625 C111.03441536 144.92907571 106.99089129 132.63386396 106 120 C106.32871094 120.4846875 106.65742187 120.969375 106.99609375 121.46875 C113.524189 130.66823382 121.201648 137.80407188 132.34765625 140.5859375 C148.08767004 143.04314142 164.62508183 139.44512287 177.6875 130.3125 C193.56285915 117.94448764 204.35774453 102.23060247 207 82 C208.15898591 64.19173575 204.47092296 47.36891769 192.6875 33.5625 C178.77729418 19.23006196 158.21168385 11.43118712 138.33984375 10.796875 C104.89167396 10.30778469 72.9174148 18.6209354 43.22167969 33.86474609 Z " fill="#FFFDFD" transform="translate(0,0)"/>
<path d="M0 0 C7.89112888 1.27276272 15.44074271 3.69142539 20.70703125 10.06640625 C24.65022791 16.23688402 25.88815494 21.70886759 25 29 C22.67822269 36.31251358 18.48225487 41.89675449 12 46 C8.40799087 47.63182686 4.7881525 48.90590627 1 50 C0.36707031 50.19207031 -0.26585937 50.38414063 -0.91796875 50.58203125 C-10.4557088 52.49673704 -19.27141358 50.99021093 -28 47 C-28 42.22400222 -26.32824861 39.8451822 -23.8125 36 C-23.15278198 34.96951538 -23.15278198 34.96951538 -22.47973633 33.91821289 C-20.99554093 31.60617942 -19.49775267 29.30327061 -18 27 C-16.87186157 25.24904202 -15.74427179 23.49773045 -14.6171875 21.74609375 C-9.8743315 14.39798809 -5.14011301 7.07834417 0 0 Z " fill="#FFFCFC" transform="translate(146,53)"/>
</svg>
