<?xml version="1.0" encoding="UTF-8"?>
<svg version="1.1" xmlns="http://www.w3.org/2000/svg" width="200" height="200">
<path d="M0 0 C66 0 132 0 200 0 C200 66 200 132 200 200 C134 200 68 200 0 200 C0 134 0 68 0 0 Z " fill="#010101" transform="translate(0,0)"/>
<path d="M0 0 C11.51001113 -0.09069868 23.01978135 -0.1639445 34.5300703 -0.20724869 C39.87589582 -0.22804209 45.22146223 -0.25620769 50.56713867 -0.30175781 C55.73485643 -0.34551141 60.90232639 -0.36919898 66.07021523 -0.37950897 C68.03280851 -0.3868477 69.99538964 -0.40117719 71.95787621 -0.42292023 C87.86960857 -0.59205371 100.8666352 0.32534719 112.8984375 11.8125 C119.44537581 18.66330464 122.19104343 25.53196018 122.4375 35 C122.0232719 47.31994553 118.10625521 55.26258462 109.3125 63.75 C102.98076779 69.09354279 94.12982298 71.87947908 85.890625 72.31640625 C85.13652344 72.35830078 84.38242188 72.40019531 83.60546875 72.44335938 C82.82816406 72.48267578 82.05085938 72.52199219 81.25 72.5625 C80.45722656 72.60568359 79.66445312 72.64886719 78.84765625 72.69335938 C76.89862185 72.79902991 74.94933252 72.89997966 73 73 C76.75895617 76.84893118 80.51611226 80.6475647 84.625 84.125 C88.62147615 87.5528076 92.29932381 91.26033341 96 95 C100.1664547 99.21012251 104.35285422 103.27241228 108.87890625 107.09765625 C112.46924451 110.31772021 115.81119006 113.78958844 119.19873047 117.22045898 C122.82576159 120.87674894 126.53902703 124.34917438 130.51171875 127.6328125 C132 129 132 129 134 132 C127.29796183 132.35888517 120.59844236 132.60167541 113.88891602 132.76904297 C111.61388639 132.83888543 109.33947216 132.93400896 107.06665039 133.05615234 C86.16285678 134.15030297 86.16285678 134.15030297 78.16371155 127.19473267 C75.77778015 124.81395676 73.56037046 122.35374799 71.43577576 119.73768616 C69.30994732 117.16484521 66.95168749 114.89116298 64.5625 112.5625 C63.77746094 111.76714844 62.99242187 110.97179687 62.18359375 110.15234375 C60.22310268 108.2199098 58.218653 106.41038507 56.125 104.625 C51.95222062 101.06411495 48.12824706 97.18503853 44.29931641 93.26220703 C42.03739993 90.96114924 39.77536359 88.82099286 37.25 86.80859375 C33.90900317 84.12303554 32.41302362 81.26936057 31.64453125 77.046875 C31.37300808 73.20151977 31.89024429 71.20383203 33.75 67.75 C37.83753235 63.57263178 43.52826934 62.49017346 49 61 C51.68485704 60.26482328 54.36890833 59.52725081 57.05078125 58.78125 C58.90166959 58.26924769 60.75580331 57.76880484 62.61328125 57.28125 C69.39717885 55.42651425 75.14902356 53.28317208 79 47 C80.72084596 41.83746211 81.38720608 35.84607595 78.94140625 30.828125 C75.45601948 26.40763446 71.45479882 24.34105838 66 23 C60.92931238 22.53253445 55.86861169 22.51036454 50.78125 22.48828125 C49.31293254 22.47141189 47.84462931 22.45325865 46.37634277 22.43388367 C42.53613741 22.38662195 38.69598982 22.35665935 34.85559082 22.33044434 C30.92704871 22.30051763 26.9987052 22.25402931 23.0703125 22.20898438 C15.38029047 22.1232227 7.6902965 22.05729106 0 22 C0 14.74 0 7.48 0 0 Z " fill="#EAEBEB" transform="translate(34,34)"/>
<path d="M0 0 C5.72996169 0.16433925 8.62475092 4.17726075 12.3125 8.0625 C12.95767578 8.72572266 13.60285156 9.38894531 14.26757812 10.07226562 C15.85447018 11.70617671 17.43126328 13.34868147 19 15 C18.67 15.99 18.34 16.98 18 18 C13.74828319 14.6381774 10.3618226 11.25171681 7 7 C6.01 7.495 6.01 7.495 5 8 C4.67 6.68 4.34 5.36 4 4 C3.34 4 2.68 4 2 4 C1.34 2.68 0.68 1.36 0 0 Z " fill="#CFCFD0" transform="translate(134,136)"/>
<path d="M0 0 C0.66 0.33 1.32 0.66 2 1 C2 1.99 2 2.98 2 4 C2.66 4 3.32 4 4 4 C5.5 5.375 5.5 5.375 7 7 C8.81766936 9.07698405 8.81766936 9.07698405 11 9.8125 C13.67871871 11.40298924 14.083405 13.09744918 15 16 C14.01 16.33 13.02 16.66 12 17 C9.79680067 14.93132437 7.61327025 12.84718206 5.4375 10.75 C4.80908203 10.16347656 4.18066406 9.57695312 3.53320312 8.97265625 C2.94345703 8.39902344 2.35371094 7.82539063 1.74609375 7.234375 C1.19622803 6.71069336 0.6463623 6.18701172 0.07983398 5.64746094 C-1 4 -1 4 -0.67163086 1.79785156 C-0.44999268 1.20456055 -0.22835449 0.61126953 0 0 Z " fill="#CFD0D1" transform="translate(101,144)"/>
<path d="M0 0 C14.49085366 12.125 14.49085366 12.125 16 19 C15.01 19.33 14.02 19.66 13 20 C12.67 18.02 12.34 16.04 12 14 C11.34 14 10.68 14 10 14 C10 13.34 10 12.68 10 12 C8.8553125 11.938125 8.8553125 11.938125 7.6875 11.875 C5 11 5 11 3.1875 8.0625 C2 5 2 5 2 3 C1.34 3 0.68 3 0 3 C0 2.01 0 1.02 0 0 Z " fill="#DBDCDD" transform="translate(116,116)"/>
<path d="M0 0 C1.32 0.66 2.64 1.32 4 2 C4 2.66 4 3.32 4 4 C-10.52 4 -25.04 4 -40 4 C-40 3.67 -40 3.34 -40 3 C-26.8 3 -13.6 3 0 3 C0 2.01 0 1.02 0 0 Z " fill="#B9BABC" transform="translate(160,161)"/>
<path d="M0 0 C3.81684226 1.55500981 6.19195732 4.03595495 9 7 C8.67 7.99 8.34 8.98 8 10 C1.42857143 5 1.42857143 5 0 0 Z " fill="#D8D8D8" transform="translate(144,144)"/>
<path d="M0 0 C1.14926266 0.95421808 2.29430541 1.91352045 3.4375 2.875 C4.07558594 3.40867187 4.71367188 3.94234375 5.37109375 4.4921875 C7 6 7 6 8 8 C7.01 8.99 6.02 9.98 5 11 C2 5.25 2 5.25 2 3 C1.34 3 0.68 3 0 3 C0 2.01 0 1.02 0 0 Z " fill="#D4D5D5" transform="translate(116,116)"/>
<path d="M0 0 C1.37562854 1.28965176 2.70766393 2.62689293 4 4 C4 4.66 4 5.32 4 6 C3.01 6.33 2.02 6.66 1 7 C0.01 6.01 -0.98 5.02 -2 4 C-1.34 2.68 -0.68 1.36 0 0 Z " fill="#BABBBC" transform="translate(112,154)"/>
</svg>
